ISO-10303-21;
HEADER;
/* Generated by software containing ST-Developer
 * from STEP Tools, Inc. (www.steptools.com) 
 */

FILE_DESCRIPTION(
/* description */ (''),
/* implementation_level */ '2;1');

FILE_NAME(
/* name */ 'main_body.step',
/* time_stamp */ '2026-08-25T19:49:45+03:00',
/* author */ (''),
/* organization */ (''),
/* preprocessor_version */ 'ST-DEVELOPER v20.1',
/* originating_system */ 'Autodesk Translation Framework v15.8.0.0',
/* authorisation */ '');

FILE_SCHEMA (('AUTOMOTIVE_DESIGN { 1 0 10303 214 3 1 1 }'));
ENDSEC;

DATA;
#10=MECHANICAL_DESIGN_GEOMETRIC_PRESENTATION_REPRESENTATION('',(#13),#1737);
#11=SHAPE_REPRESENTATION_RELATIONSHIP('SRR','None',#1743,#12);
#12=ADVANCED_BREP_SHAPE_REPRESENTATION('',(#14),#1736);
#13=STYLED_ITEM('',(#1754),#14);
#14=MANIFOLD_SOLID_BREP('main_body',#1009);
#15=FACE_BOUND('',#196,.T.);
#16=FACE_BOUND('',#197,.T.);
#17=FACE_BOUND('',#198,.T.);
#18=FACE_BOUND('',#199,.T.);
#19=FACE_BOUND('',#215,.T.);
#20=FACE_BOUND('',#216,.T.);
#21=FACE_BOUND('',#217,.T.);
#22=FACE_BOUND('',#218,.T.);
#23=CYLINDRICAL_SURFACE('',#1040,12.5);
#24=CYLINDRICAL_SURFACE('',#1043,12.5);
#25=CYLINDRICAL_SURFACE('',#1059,2.3);
#26=CYLINDRICAL_SURFACE('',#1063,2.3);
#27=CYLINDRICAL_SURFACE('',#1067,2.3);
#28=CYLINDRICAL_SURFACE('',#1071,2.3);
#29=CYLINDRICAL_SURFACE('',#1077,3.5);
#30=CYLINDRICAL_SURFACE('',#1081,3.5);
#31=CYLINDRICAL_SURFACE('',#1097,5.);
#32=CYLINDRICAL_SURFACE('',#1098,5.);
#33=CYLINDRICAL_SURFACE('',#1101,5.);
#34=CYLINDRICAL_SURFACE('',#1103,4.99999999999996);
#35=CYLINDRICAL_SURFACE('',#1104,12.5);
#36=CYLINDRICAL_SURFACE('',#1106,12.5);
#37=CYLINDRICAL_SURFACE('',#1109,2.3);
#38=CYLINDRICAL_SURFACE('',#1113,2.3);
#39=CYLINDRICAL_SURFACE('',#1117,2.3);
#40=CYLINDRICAL_SURFACE('',#1121,2.3);
#41=CIRCLE('',#1013,11.8181980515339);
#42=CIRCLE('',#1014,11.05);
#43=CIRCLE('',#1017,11.818198051534);
#44=CIRCLE('',#1018,11.05);
#45=CIRCLE('',#1021,11.8181980515339);
#46=CIRCLE('',#1022,11.05);
#47=CIRCLE('',#1025,11.8181980515339);
#48=CIRCLE('',#1026,11.05);
#49=CIRCLE('',#1028,12.5);
#50=CIRCLE('',#1031,12.5);
#51=CIRCLE('',#1035,12.5);
#52=CIRCLE('',#1038,12.5);
#53=CIRCLE('',#1041,12.5);
#54=CIRCLE('',#1044,12.5);
#55=CIRCLE('',#1047,2.80000000000001);
#56=CIRCLE('',#1048,2.3);
#57=CIRCLE('',#1050,12.5);
#58=CIRCLE('',#1051,12.5);
#59=CIRCLE('',#1052,5.);
#60=CIRCLE('',#1053,4.99999999999996);
#61=CIRCLE('',#1054,5.);
#62=CIRCLE('',#1055,5.);
#63=CIRCLE('',#1056,2.8);
#64=CIRCLE('',#1057,2.80000000000001);
#65=CIRCLE('',#1058,2.8);
#66=CIRCLE('',#1060,2.3);
#67=CIRCLE('',#1062,2.3);
#68=CIRCLE('',#1064,2.3);
#69=CIRCLE('',#1066,2.3);
#70=CIRCLE('',#1068,2.3);
#71=CIRCLE('',#1070,2.3);
#72=CIRCLE('',#1072,2.3);
#73=CIRCLE('',#1078,3.5);
#74=CIRCLE('',#1079,3.5);
#75=CIRCLE('',#1082,3.5);
#76=CIRCLE('',#1083,3.5);
#77=CIRCLE('',#1085,5.);
#78=CIRCLE('',#1086,5.);
#79=CIRCLE('',#1087,4.99999999999996);
#80=CIRCLE('',#1088,5.);
#81=CIRCLE('',#1089,2.80000000000001);
#82=CIRCLE('',#1090,2.8);
#83=CIRCLE('',#1091,2.8);
#84=CIRCLE('',#1092,2.80000000000001);
#85=CIRCLE('',#1108,2.3);
#86=CIRCLE('',#1110,2.3);
#87=CIRCLE('',#1112,2.3);
#88=CIRCLE('',#1114,2.3);
#89=CIRCLE('',#1116,2.3);
#90=CIRCLE('',#1118,2.3);
#91=CIRCLE('',#1120,2.3);
#92=CIRCLE('',#1122,2.3);
#93=CONICAL_SURFACE('',#1012,11.434099025767,1.17809724509617);
#94=CONICAL_SURFACE('',#1016,11.434099025767,1.17809724509616);
#95=CONICAL_SURFACE('',#1020,11.434099025767,1.17809724509617);
#96=CONICAL_SURFACE('',#1024,11.434099025767,1.17809724509617);
#97=CONICAL_SURFACE('',#1027,12.,0.785398163397447);
#98=CONICAL_SURFACE('',#1030,12.,0.785398163397449);
#99=CONICAL_SURFACE('',#1034,12.,0.785398163397448);
#100=CONICAL_SURFACE('',#1037,12.,0.785398163397448);
#101=CONICAL_SURFACE('',#1046,2.55000000000001,0.785398163397455);
#102=CONICAL_SURFACE('',#1061,2.55,0.785398163397448);
#103=CONICAL_SURFACE('',#1065,2.55,0.785398163397448);
#104=CONICAL_SURFACE('',#1069,2.55000000000001,0.785398163397455);
#105=CONICAL_SURFACE('',#1107,2.55000000000001,0.785398163397455);
#106=CONICAL_SURFACE('',#1111,2.55000000000001,0.785398163397455);
#107=CONICAL_SURFACE('',#1115,2.55,0.785398163397449);
#108=CONICAL_SURFACE('',#1119,2.55,0.785398163397449);
#109=FACE_OUTER_BOUND('',#173,.T.);
#110=FACE_OUTER_BOUND('',#174,.T.);
#111=FACE_OUTER_BOUND('',#175,.T.);
#112=FACE_OUTER_BOUND('',#176,.T.);
#113=FACE_OUTER_BOUND('',#177,.T.);
#114=FACE_OUTER_BOUND('',#178,.T.);
#115=FACE_OUTER_BOUND('',#179,.T.);
#116=FACE_OUTER_BOUND('',#180,.T.);
#117=FACE_OUTER_BOUND('',#181,.T.);
#118=FACE_OUTER_BOUND('',#182,.T.);
#119=FACE_OUTER_BOUND('',#183,.T.);
#120=FACE_OUTER_BOUND('',#184,.T.);
#121=FACE_OUTER_BOUND('',#185,.T.);
#122=FACE_OUTER_BOUND('',#186,.T.);
#123=FACE_OUTER_BOUND('',#187,.T.);
#124=FACE_OUTER_BOUND('',#188,.T.);
#125=FACE_OUTER_BOUND('',#189,.T.);
#126=FACE_OUTER_BOUND('',#190,.T.);
#127=FACE_OUTER_BOUND('',#191,.T.);
#128=FACE_OUTER_BOUND('',#192,.T.);
#129=FACE_OUTER_BOUND('',#193,.T.);
#130=FACE_OUTER_BOUND('',#194,.T.);
#131=FACE_OUTER_BOUND('',#195,.T.);
#132=FACE_OUTER_BOUND('',#200,.T.);
#133=FACE_OUTER_BOUND('',#201,.T.);
#134=FACE_OUTER_BOUND('',#202,.T.);
#135=FACE_OUTER_BOUND('',#203,.T.);
#136=FACE_OUTER_BOUND('',#204,.T.);
#137=FACE_OUTER_BOUND('',#205,.T.);
#138=FACE_OUTER_BOUND('',#206,.T.);
#139=FACE_OUTER_BOUND('',#207,.T.);
#140=FACE_OUTER_BOUND('',#208,.T.);
#141=FACE_OUTER_BOUND('',#209,.T.);
#142=FACE_OUTER_BOUND('',#210,.T.);
#143=FACE_OUTER_BOUND('',#211,.T.);
#144=FACE_OUTER_BOUND('',#212,.T.);
#145=FACE_OUTER_BOUND('',#213,.T.);
#146=FACE_OUTER_BOUND('',#214,.T.);
#147=FACE_OUTER_BOUND('',#219,.T.);
#148=FACE_OUTER_BOUND('',#220,.T.);
#149=FACE_OUTER_BOUND('',#221,.T.);
#150=FACE_OUTER_BOUND('',#222,.T.);
#151=FACE_OUTER_BOUND('',#223,.T.);
#152=FACE_OUTER_BOUND('',#224,.T.);
#153=FACE_OUTER_BOUND('',#225,.T.);
#154=FACE_OUTER_BOUND('',#226,.T.);
#155=FACE_OUTER_BOUND('',#227,.T.);
#156=FACE_OUTER_BOUND('',#228,.T.);
#157=FACE_OUTER_BOUND('',#229,.T.);
#158=FACE_OUTER_BOUND('',#230,.T.);
#159=FACE_OUTER_BOUND('',#231,.T.);
#160=FACE_OUTER_BOUND('',#232,.T.);
#161=FACE_OUTER_BOUND('',#233,.T.);
#162=FACE_OUTER_BOUND('',#234,.T.);
#163=FACE_OUTER_BOUND('',#235,.T.);
#164=FACE_OUTER_BOUND('',#236,.T.);
#165=FACE_OUTER_BOUND('',#237,.T.);
#166=FACE_OUTER_BOUND('',#238,.T.);
#167=FACE_OUTER_BOUND('',#239,.T.);
#168=FACE_OUTER_BOUND('',#240,.T.);
#169=FACE_OUTER_BOUND('',#241,.T.);
#170=FACE_OUTER_BOUND('',#242,.T.);
#171=FACE_OUTER_BOUND('',#243,.T.);
#172=FACE_OUTER_BOUND('',#244,.T.);
#173=EDGE_LOOP('',(#639,#640,#641,#642));
#174=EDGE_LOOP('',(#643,#644,#645,#646));
#175=EDGE_LOOP('',(#647,#648,#649,#650));
#176=EDGE_LOOP('',(#651,#652,#653,#654));
#177=EDGE_LOOP('',(#655,#656,#657,#658));
#178=EDGE_LOOP('',(#659,#660,#661,#662));
#179=EDGE_LOOP('',(#663,#664,#665,#666));
#180=EDGE_LOOP('',(#667,#668,#669,#670));
#181=EDGE_LOOP('',(#671,#672,#673,#674));
#182=EDGE_LOOP('',(#675,#676,#677,#678));
#183=EDGE_LOOP('',(#679,#680,#681,#682));
#184=EDGE_LOOP('',(#683,#684,#685,#686));
#185=EDGE_LOOP('',(#687,#688,#689,#690,#691,#692,#693,#694));
#186=EDGE_LOOP('',(#695,#696,#697,#698));
#187=EDGE_LOOP('',(#699,#700,#701,#702));
#188=EDGE_LOOP('',(#703,#704,#705,#706));
#189=EDGE_LOOP('',(#707,#708,#709,#710));
#190=EDGE_LOOP('',(#711,#712,#713,#714));
#191=EDGE_LOOP('',(#715,#716,#717,#718));
#192=EDGE_LOOP('',(#719,#720,#721,#722));
#193=EDGE_LOOP('',(#723,#724,#725,#726));
#194=EDGE_LOOP('',(#727,#728,#729,#730));
#195=EDGE_LOOP('',(#731,#732,#733,#734,#735,#736,#737,#738,#739,#740,#741,
#742,#743,#744,#745,#746,#747,#748,#749,#750));
#196=EDGE_LOOP('',(#751));
#197=EDGE_LOOP('',(#752));
#198=EDGE_LOOP('',(#753));
#199=EDGE_LOOP('',(#754));
#200=EDGE_LOOP('',(#755,#756,#757,#758));
#201=EDGE_LOOP('',(#759,#760,#761,#762));
#202=EDGE_LOOP('',(#763,#764,#765,#766));
#203=EDGE_LOOP('',(#767,#768,#769,#770));
#204=EDGE_LOOP('',(#771,#772,#773,#774));
#205=EDGE_LOOP('',(#775,#776,#777,#778));
#206=EDGE_LOOP('',(#779,#780,#781,#782));
#207=EDGE_LOOP('',(#783));
#208=EDGE_LOOP('',(#784));
#209=EDGE_LOOP('',(#785));
#210=EDGE_LOOP('',(#786));
#211=EDGE_LOOP('',(#787,#788,#789,#790));
#212=EDGE_LOOP('',(#791,#792,#793,#794));
#213=EDGE_LOOP('',(#795,#796,#797,#798));
#214=EDGE_LOOP('',(#799,#800,#801,#802,#803,#804,#805,#806,#807,#808,#809,
#810));
#215=EDGE_LOOP('',(#811));
#216=EDGE_LOOP('',(#812));
#217=EDGE_LOOP('',(#813));
#218=EDGE_LOOP('',(#814));
#219=EDGE_LOOP('',(#815,#816,#817,#818));
#220=EDGE_LOOP('',(#819,#820,#821,#822,#823));
#221=EDGE_LOOP('',(#824,#825,#826,#827,#828));
#222=EDGE_LOOP('',(#829,#830,#831,#832,#833,#834,#835,#836,#837,#838));
#223=EDGE_LOOP('',(#839,#840,#841,#842));
#224=EDGE_LOOP('',(#843,#844,#845,#846));
#225=EDGE_LOOP('',(#847,#848,#849,#850));
#226=EDGE_LOOP('',(#851,#852,#853,#854));
#227=EDGE_LOOP('',(#855,#856,#857,#858));
#228=EDGE_LOOP('',(#859,#860,#861,#862));
#229=EDGE_LOOP('',(#863,#864,#865,#866));
#230=EDGE_LOOP('',(#867,#868,#869,#870));
#231=EDGE_LOOP('',(#871,#872,#873,#874));
#232=EDGE_LOOP('',(#875,#876,#877,#878));
#233=EDGE_LOOP('',(#879,#880,#881,#882));
#234=EDGE_LOOP('',(#883,#884,#885,#886));
#235=EDGE_LOOP('',(#887,#888,#889,#890));
#236=EDGE_LOOP('',(#891,#892,#893,#894));
#237=EDGE_LOOP('',(#895,#896,#897,#898));
#238=EDGE_LOOP('',(#899,#900,#901,#902));
#239=EDGE_LOOP('',(#903,#904,#905,#906));
#240=EDGE_LOOP('',(#907,#908,#909,#910));
#241=EDGE_LOOP('',(#911));
#242=EDGE_LOOP('',(#912));
#243=EDGE_LOOP('',(#913));
#244=EDGE_LOOP('',(#914));
#245=LINE('',#1451,#331);
#246=LINE('',#1453,#332);
#247=LINE('',#1455,#333);
#248=LINE('',#1456,#334);
#249=LINE('',#1460,#335);
#250=LINE('',#1466,#336);
#251=LINE('',#1467,#337);
#252=LINE('',#1468,#338);
#253=LINE('',#1472,#339);
#254=LINE('',#1478,#340);
#255=LINE('',#1479,#341);
#256=LINE('',#1480,#342);
#257=LINE('',#1484,#343);
#258=LINE('',#1490,#344);
#259=LINE('',#1491,#345);
#260=LINE('',#1492,#346);
#261=LINE('',#1498,#347);
#262=LINE('',#1501,#348);
#263=LINE('',#1504,#349);
#264=LINE('',#1505,#350);
#265=LINE('',#1508,#351);
#266=LINE('',#1512,#352);
#267=LINE('',#1513,#353);
#268=LINE('',#1517,#354);
#269=LINE('',#1521,#355);
#270=LINE('',#1522,#356);
#271=LINE('',#1525,#357);
#272=LINE('',#1528,#358);
#273=LINE('',#1531,#359);
#274=LINE('',#1534,#360);
#275=LINE('',#1537,#361);
#276=LINE('',#1538,#362);
#277=LINE('',#1541,#363);
#278=LINE('',#1545,#364);
#279=LINE('',#1546,#365);
#280=LINE('',#1551,#366);
#281=LINE('',#1556,#367);
#282=LINE('',#1557,#368);
#283=LINE('',#1561,#369);
#284=LINE('',#1565,#370);
#285=LINE('',#1567,#371);
#286=LINE('',#1569,#372);
#287=LINE('',#1573,#373);
#288=LINE('',#1577,#374);
#289=LINE('',#1581,#375);
#290=LINE('',#1584,#376);
#291=LINE('',#1593,#377);
#292=LINE('',#1597,#378);
#293=LINE('',#1601,#379);
#294=LINE('',#1605,#380);
#295=LINE('',#1609,#381);
#296=LINE('',#1613,#382);
#297=LINE('',#1617,#383);
#298=LINE('',#1628,#384);
#299=LINE('',#1631,#385);
#300=LINE('',#1633,#386);
#301=LINE('',#1634,#387);
#302=LINE('',#1640,#388);
#303=LINE('',#1643,#389);
#304=LINE('',#1645,#390);
#305=LINE('',#1647,#391);
#306=LINE('',#1651,#392);
#307=LINE('',#1655,#393);
#308=LINE('',#1659,#394);
#309=LINE('',#1662,#395);
#310=LINE('',#1672,#396);
#311=LINE('',#1673,#397);
#312=LINE('',#1675,#398);
#313=LINE('',#1677,#399);
#314=LINE('',#1679,#400);
#315=LINE('',#1681,#401);
#316=LINE('',#1683,#402);
#317=LINE('',#1685,#403);
#318=LINE('',#1687,#404);
#319=LINE('',#1689,#405);
#320=LINE('',#1691,#406);
#321=LINE('',#1694,#407);
#322=LINE('',#1696,#408);
#323=LINE('',#1700,#409);
#324=LINE('',#1704,#410);
#325=LINE('',#1708,#411);
#326=LINE('',#1712,#412);
#327=LINE('',#1716,#413);
#328=LINE('',#1720,#414);
#329=LINE('',#1724,#415);
#330=LINE('',#1728,#416);
#331=VECTOR('',#1131,10.);
#332=VECTOR('',#1132,10.);
#333=VECTOR('',#1133,10.);
#334=VECTOR('',#1134,10.);
#335=VECTOR('',#1137,10.);
#336=VECTOR('',#1144,10.);
#337=VECTOR('',#1145,10.);
#338=VECTOR('',#1146,10.);
#339=VECTOR('',#1149,10.);
#340=VECTOR('',#1156,10.);
#341=VECTOR('',#1157,10.);
#342=VECTOR('',#1158,10.);
#343=VECTOR('',#1161,10.);
#344=VECTOR('',#1168,10.);
#345=VECTOR('',#1169,10.);
#346=VECTOR('',#1170,10.);
#347=VECTOR('',#1179,10.);
#348=VECTOR('',#1182,10.);
#349=VECTOR('',#1185,10.);
#350=VECTOR('',#1186,10.);
#351=VECTOR('',#1189,10.);
#352=VECTOR('',#1194,10.);
#353=VECTOR('',#1195,10.);
#354=VECTOR('',#1200,10.);
#355=VECTOR('',#1205,10.);
#356=VECTOR('',#1206,10.);
#357=VECTOR('',#1209,10.);
#358=VECTOR('',#1214,10.);
#359=VECTOR('',#1217,10.);
#360=VECTOR('',#1220,10.);
#361=VECTOR('',#1223,10.);
#362=VECTOR('',#1224,10.);
#363=VECTOR('',#1227,10.);
#364=VECTOR('',#1232,10.);
#365=VECTOR('',#1233,10.);
#366=VECTOR('',#1238,2.55000000000001);
#367=VECTOR('',#1243,10.);
#368=VECTOR('',#1244,10.);
#369=VECTOR('',#1247,10.);
#370=VECTOR('',#1250,10.);
#371=VECTOR('',#1251,10.);
#372=VECTOR('',#1252,10.);
#373=VECTOR('',#1255,10.);
#374=VECTOR('',#1258,10.);
#375=VECTOR('',#1261,10.);
#376=VECTOR('',#1264,10.);
#377=VECTOR('',#1273,2.3);
#378=VECTOR('',#1278,2.55);
#379=VECTOR('',#1283,2.3);
#380=VECTOR('',#1288,2.55);
#381=VECTOR('',#1293,2.3);
#382=VECTOR('',#1298,2.55000000000001);
#383=VECTOR('',#1303,2.3);
#384=VECTOR('',#1318,10.);
#385=VECTOR('',#1321,10.);
#386=VECTOR('',#1324,10.);
#387=VECTOR('',#1325,10.);
#388=VECTOR('',#1330,10.);
#389=VECTOR('',#1333,10.);
#390=VECTOR('',#1336,10.);
#391=VECTOR('',#1337,10.);
#392=VECTOR('',#1340,10.);
#393=VECTOR('',#1343,10.);
#394=VECTOR('',#1346,10.);
#395=VECTOR('',#1349,10.);
#396=VECTOR('',#1360,10.);
#397=VECTOR('',#1361,10.);
#398=VECTOR('',#1364,10.);
#399=VECTOR('',#1367,10.);
#400=VECTOR('',#1370,10.);
#401=VECTOR('',#1373,10.);
#402=VECTOR('',#1376,10.);
#403=VECTOR('',#1379,10.);
#404=VECTOR('',#1382,10.);
#405=VECTOR('',#1385,10.);
#406=VECTOR('',#1388,10.);
#407=VECTOR('',#1393,10.);
#408=VECTOR('',#1396,10.);
#409=VECTOR('',#1401,2.55000000000001);
#410=VECTOR('',#1406,2.3);
#411=VECTOR('',#1411,2.55000000000001);
#412=VECTOR('',#1416,2.3);
#413=VECTOR('',#1421,2.55);
#414=VECTOR('',#1426,2.3);
#415=VECTOR('',#1431,2.55);
#416=VECTOR('',#1436,2.3);
#417=VERTEX_POINT('',#1449);
#418=VERTEX_POINT('',#1450);
#419=VERTEX_POINT('',#1452);
#420=VERTEX_POINT('',#1454);
#421=VERTEX_POINT('',#1458);
#422=VERTEX_POINT('',#1459);
#423=VERTEX_POINT('',#1464);
#424=VERTEX_POINT('',#1465);
#425=VERTEX_POINT('',#1470);
#426=VERTEX_POINT('',#1471);
#427=VERTEX_POINT('',#1476);
#428=VERTEX_POINT('',#1477);
#429=VERTEX_POINT('',#1482);
#430=VERTEX_POINT('',#1483);
#431=VERTEX_POINT('',#1488);
#432=VERTEX_POINT('',#1489);
#433=VERTEX_POINT('',#1497);
#434=VERTEX_POINT('',#1499);
#435=VERTEX_POINT('',#1503);
#436=VERTEX_POINT('',#1507);
#437=VERTEX_POINT('',#1511);
#438=VERTEX_POINT('',#1516);
#439=VERTEX_POINT('',#1520);
#440=VERTEX_POINT('',#1524);
#441=VERTEX_POINT('',#1530);
#442=VERTEX_POINT('',#1532);
#443=VERTEX_POINT('',#1536);
#444=VERTEX_POINT('',#1540);
#445=VERTEX_POINT('',#1544);
#446=VERTEX_POINT('',#1548);
#447=VERTEX_POINT('',#1550);
#448=VERTEX_POINT('',#1554);
#449=VERTEX_POINT('',#1555);
#450=VERTEX_POINT('',#1558);
#451=VERTEX_POINT('',#1560);
#452=VERTEX_POINT('',#1562);
#453=VERTEX_POINT('',#1564);
#454=VERTEX_POINT('',#1566);
#455=VERTEX_POINT('',#1568);
#456=VERTEX_POINT('',#1570);
#457=VERTEX_POINT('',#1572);
#458=VERTEX_POINT('',#1574);
#459=VERTEX_POINT('',#1576);
#460=VERTEX_POINT('',#1578);
#461=VERTEX_POINT('',#1580);
#462=VERTEX_POINT('',#1582);
#463=VERTEX_POINT('',#1585);
#464=VERTEX_POINT('',#1587);
#465=VERTEX_POINT('',#1589);
#466=VERTEX_POINT('',#1592);
#467=VERTEX_POINT('',#1596);
#468=VERTEX_POINT('',#1600);
#469=VERTEX_POINT('',#1604);
#470=VERTEX_POINT('',#1608);
#471=VERTEX_POINT('',#1612);
#472=VERTEX_POINT('',#1616);
#473=VERTEX_POINT('',#1624);
#474=VERTEX_POINT('',#1625);
#475=VERTEX_POINT('',#1627);
#476=VERTEX_POINT('',#1629);
#477=VERTEX_POINT('',#1636);
#478=VERTEX_POINT('',#1637);
#479=VERTEX_POINT('',#1639);
#480=VERTEX_POINT('',#1641);
#481=VERTEX_POINT('',#1646);
#482=VERTEX_POINT('',#1648);
#483=VERTEX_POINT('',#1650);
#484=VERTEX_POINT('',#1652);
#485=VERTEX_POINT('',#1654);
#486=VERTEX_POINT('',#1656);
#487=VERTEX_POINT('',#1658);
#488=VERTEX_POINT('',#1660);
#489=VERTEX_POINT('',#1663);
#490=VERTEX_POINT('',#1665);
#491=VERTEX_POINT('',#1667);
#492=VERTEX_POINT('',#1669);
#493=VERTEX_POINT('',#1699);
#494=VERTEX_POINT('',#1703);
#495=VERTEX_POINT('',#1707);
#496=VERTEX_POINT('',#1711);
#497=VERTEX_POINT('',#1715);
#498=VERTEX_POINT('',#1719);
#499=VERTEX_POINT('',#1723);
#500=VERTEX_POINT('',#1727);
#501=EDGE_CURVE('',#417,#418,#245,.T.);
#502=EDGE_CURVE('',#418,#419,#246,.T.);
#503=EDGE_CURVE('',#419,#420,#247,.T.);
#504=EDGE_CURVE('',#420,#417,#248,.T.);
#505=EDGE_CURVE('',#421,#422,#249,.T.);
#506=EDGE_CURVE('',#422,#418,#41,.T.);
#507=EDGE_CURVE('',#417,#421,#42,.T.);
#508=EDGE_CURVE('',#423,#424,#250,.T.);
#509=EDGE_CURVE('',#424,#422,#251,.T.);
#510=EDGE_CURVE('',#421,#423,#252,.T.);
#511=EDGE_CURVE('',#425,#426,#253,.T.);
#512=EDGE_CURVE('',#426,#424,#43,.T.);
#513=EDGE_CURVE('',#423,#425,#44,.T.);
#514=EDGE_CURVE('',#427,#428,#254,.T.);
#515=EDGE_CURVE('',#428,#426,#255,.T.);
#516=EDGE_CURVE('',#425,#427,#256,.T.);
#517=EDGE_CURVE('',#429,#430,#257,.T.);
#518=EDGE_CURVE('',#430,#428,#45,.T.);
#519=EDGE_CURVE('',#427,#429,#46,.T.);
#520=EDGE_CURVE('',#431,#432,#258,.T.);
#521=EDGE_CURVE('',#432,#430,#259,.T.);
#522=EDGE_CURVE('',#429,#431,#260,.T.);
#523=EDGE_CURVE('',#419,#432,#47,.T.);
#524=EDGE_CURVE('',#431,#420,#48,.T.);
#525=EDGE_CURVE('',#430,#433,#261,.T.);
#526=EDGE_CURVE('',#433,#434,#49,.T.);
#527=EDGE_CURVE('',#428,#434,#262,.T.);
#528=EDGE_CURVE('',#432,#435,#263,.T.);
#529=EDGE_CURVE('',#435,#433,#264,.T.);
#530=EDGE_CURVE('',#436,#419,#265,.T.);
#531=EDGE_CURVE('',#436,#435,#50,.T.);
#532=EDGE_CURVE('',#418,#437,#266,.T.);
#533=EDGE_CURVE('',#437,#436,#267,.T.);
#534=EDGE_CURVE('',#422,#438,#268,.T.);
#535=EDGE_CURVE('',#438,#437,#51,.T.);
#536=EDGE_CURVE('',#424,#439,#269,.T.);
#537=EDGE_CURVE('',#439,#438,#270,.T.);
#538=EDGE_CURVE('',#426,#440,#271,.T.);
#539=EDGE_CURVE('',#440,#439,#52,.T.);
#540=EDGE_CURVE('',#434,#440,#272,.T.);
#541=EDGE_CURVE('',#433,#441,#273,.T.);
#542=EDGE_CURVE('',#442,#441,#53,.T.);
#543=EDGE_CURVE('',#434,#442,#274,.T.);
#544=EDGE_CURVE('',#435,#443,#275,.T.);
#545=EDGE_CURVE('',#441,#443,#276,.T.);
#546=EDGE_CURVE('',#436,#444,#277,.T.);
#547=EDGE_CURVE('',#443,#444,#54,.T.);
#548=EDGE_CURVE('',#437,#445,#278,.T.);
#549=EDGE_CURVE('',#444,#445,#279,.T.);
#550=EDGE_CURVE('',#446,#446,#55,.T.);
#551=EDGE_CURVE('',#446,#447,#280,.T.);
#552=EDGE_CURVE('',#447,#447,#56,.T.);
#553=EDGE_CURVE('',#448,#449,#281,.T.);
#554=EDGE_CURVE('',#449,#442,#282,.T.);
#555=EDGE_CURVE('',#445,#450,#57,.T.);
#556=EDGE_CURVE('',#450,#451,#283,.T.);
#557=EDGE_CURVE('',#451,#452,#58,.T.);
#558=EDGE_CURVE('',#452,#453,#284,.T.);
#559=EDGE_CURVE('',#453,#454,#285,.T.);
#560=EDGE_CURVE('',#454,#455,#286,.T.);
#561=EDGE_CURVE('',#455,#456,#59,.T.);
#562=EDGE_CURVE('',#456,#457,#287,.T.);
#563=EDGE_CURVE('',#457,#458,#60,.T.);
#564=EDGE_CURVE('',#458,#459,#288,.T.);
#565=EDGE_CURVE('',#459,#460,#61,.T.);
#566=EDGE_CURVE('',#460,#461,#289,.T.);
#567=EDGE_CURVE('',#461,#462,#62,.T.);
#568=EDGE_CURVE('',#462,#448,#290,.T.);
#569=EDGE_CURVE('',#463,#463,#63,.T.);
#570=EDGE_CURVE('',#464,#464,#64,.T.);
#571=EDGE_CURVE('',#465,#465,#65,.T.);
#572=EDGE_CURVE('',#447,#466,#291,.T.);
#573=EDGE_CURVE('',#466,#466,#66,.T.);
#574=EDGE_CURVE('',#463,#467,#292,.T.);
#575=EDGE_CURVE('',#467,#467,#67,.T.);
#576=EDGE_CURVE('',#467,#468,#293,.T.);
#577=EDGE_CURVE('',#468,#468,#68,.T.);
#578=EDGE_CURVE('',#465,#469,#294,.T.);
#579=EDGE_CURVE('',#469,#469,#69,.T.);
#580=EDGE_CURVE('',#469,#470,#295,.T.);
#581=EDGE_CURVE('',#470,#470,#70,.T.);
#582=EDGE_CURVE('',#464,#471,#296,.T.);
#583=EDGE_CURVE('',#471,#471,#71,.T.);
#584=EDGE_CURVE('',#471,#472,#297,.T.);
#585=EDGE_CURVE('',#472,#472,#72,.T.);
#586=EDGE_CURVE('',#473,#474,#73,.T.);
#587=EDGE_CURVE('',#474,#475,#298,.T.);
#588=EDGE_CURVE('',#475,#476,#74,.T.);
#589=EDGE_CURVE('',#476,#473,#299,.T.);
#590=EDGE_CURVE('',#454,#474,#300,.T.);
#591=EDGE_CURVE('',#475,#453,#301,.T.);
#592=EDGE_CURVE('',#477,#478,#75,.T.);
#593=EDGE_CURVE('',#478,#479,#302,.T.);
#594=EDGE_CURVE('',#479,#480,#76,.T.);
#595=EDGE_CURVE('',#480,#477,#303,.T.);
#596=EDGE_CURVE('',#479,#476,#304,.T.);
#597=EDGE_CURVE('',#478,#481,#305,.T.);
#598=EDGE_CURVE('',#481,#482,#77,.T.);
#599=EDGE_CURVE('',#482,#483,#306,.T.);
#600=EDGE_CURVE('',#483,#484,#78,.T.);
#601=EDGE_CURVE('',#484,#485,#307,.T.);
#602=EDGE_CURVE('',#485,#486,#79,.T.);
#603=EDGE_CURVE('',#486,#487,#308,.T.);
#604=EDGE_CURVE('',#487,#488,#80,.T.);
#605=EDGE_CURVE('',#488,#473,#309,.T.);
#606=EDGE_CURVE('',#489,#489,#81,.T.);
#607=EDGE_CURVE('',#490,#490,#82,.T.);
#608=EDGE_CURVE('',#491,#491,#83,.T.);
#609=EDGE_CURVE('',#492,#492,#84,.T.);
#610=EDGE_CURVE('',#449,#480,#310,.T.);
#611=EDGE_CURVE('',#477,#448,#311,.T.);
#612=EDGE_CURVE('',#488,#455,#312,.T.);
#613=EDGE_CURVE('',#481,#462,#313,.T.);
#614=EDGE_CURVE('',#440,#452,#314,.T.);
#615=EDGE_CURVE('',#482,#461,#315,.T.);
#616=EDGE_CURVE('',#487,#456,#316,.T.);
#617=EDGE_CURVE('',#486,#457,#317,.T.);
#618=EDGE_CURVE('',#483,#460,#318,.T.);
#619=EDGE_CURVE('',#484,#459,#319,.T.);
#620=EDGE_CURVE('',#485,#458,#320,.T.);
#621=EDGE_CURVE('',#439,#451,#321,.T.);
#622=EDGE_CURVE('',#438,#450,#322,.T.);
#623=EDGE_CURVE('',#489,#493,#323,.T.);
#624=EDGE_CURVE('',#493,#493,#85,.T.);
#625=EDGE_CURVE('',#493,#494,#324,.T.);
#626=EDGE_CURVE('',#494,#494,#86,.T.);
#627=EDGE_CURVE('',#492,#495,#325,.T.);
#628=EDGE_CURVE('',#495,#495,#87,.T.);
#629=EDGE_CURVE('',#495,#496,#326,.T.);
#630=EDGE_CURVE('',#496,#496,#88,.T.);
#631=EDGE_CURVE('',#490,#497,#327,.T.);
#632=EDGE_CURVE('',#497,#497,#89,.T.);
#633=EDGE_CURVE('',#497,#498,#328,.T.);
#634=EDGE_CURVE('',#498,#498,#90,.T.);
#635=EDGE_CURVE('',#491,#499,#329,.T.);
#636=EDGE_CURVE('',#499,#499,#91,.T.);
#637=EDGE_CURVE('',#499,#500,#330,.T.);
#638=EDGE_CURVE('',#500,#500,#92,.T.);
#639=ORIENTED_EDGE('',*,*,#501,.T.);
#640=ORIENTED_EDGE('',*,*,#502,.T.);
#641=ORIENTED_EDGE('',*,*,#503,.T.);
#642=ORIENTED_EDGE('',*,*,#504,.T.);
#643=ORIENTED_EDGE('',*,*,#505,.T.);
#644=ORIENTED_EDGE('',*,*,#506,.T.);
#645=ORIENTED_EDGE('',*,*,#501,.F.);
#646=ORIENTED_EDGE('',*,*,#507,.T.);
#647=ORIENTED_EDGE('',*,*,#508,.T.);
#648=ORIENTED_EDGE('',*,*,#509,.T.);
#649=ORIENTED_EDGE('',*,*,#505,.F.);
#650=ORIENTED_EDGE('',*,*,#510,.T.);
#651=ORIENTED_EDGE('',*,*,#511,.T.);
#652=ORIENTED_EDGE('',*,*,#512,.T.);
#653=ORIENTED_EDGE('',*,*,#508,.F.);
#654=ORIENTED_EDGE('',*,*,#513,.T.);
#655=ORIENTED_EDGE('',*,*,#514,.T.);
#656=ORIENTED_EDGE('',*,*,#515,.T.);
#657=ORIENTED_EDGE('',*,*,#511,.F.);
#658=ORIENTED_EDGE('',*,*,#516,.T.);
#659=ORIENTED_EDGE('',*,*,#517,.T.);
#660=ORIENTED_EDGE('',*,*,#518,.T.);
#661=ORIENTED_EDGE('',*,*,#514,.F.);
#662=ORIENTED_EDGE('',*,*,#519,.T.);
#663=ORIENTED_EDGE('',*,*,#520,.T.);
#664=ORIENTED_EDGE('',*,*,#521,.T.);
#665=ORIENTED_EDGE('',*,*,#517,.F.);
#666=ORIENTED_EDGE('',*,*,#522,.T.);
#667=ORIENTED_EDGE('',*,*,#503,.F.);
#668=ORIENTED_EDGE('',*,*,#523,.T.);
#669=ORIENTED_EDGE('',*,*,#520,.F.);
#670=ORIENTED_EDGE('',*,*,#524,.T.);
#671=ORIENTED_EDGE('',*,*,#518,.F.);
#672=ORIENTED_EDGE('',*,*,#525,.T.);
#673=ORIENTED_EDGE('',*,*,#526,.T.);
#674=ORIENTED_EDGE('',*,*,#527,.F.);
#675=ORIENTED_EDGE('',*,*,#521,.F.);
#676=ORIENTED_EDGE('',*,*,#528,.T.);
#677=ORIENTED_EDGE('',*,*,#529,.T.);
#678=ORIENTED_EDGE('',*,*,#525,.F.);
#679=ORIENTED_EDGE('',*,*,#523,.F.);
#680=ORIENTED_EDGE('',*,*,#530,.F.);
#681=ORIENTED_EDGE('',*,*,#531,.T.);
#682=ORIENTED_EDGE('',*,*,#528,.F.);
#683=ORIENTED_EDGE('',*,*,#502,.F.);
#684=ORIENTED_EDGE('',*,*,#532,.T.);
#685=ORIENTED_EDGE('',*,*,#533,.T.);
#686=ORIENTED_EDGE('',*,*,#530,.T.);
#687=ORIENTED_EDGE('',*,*,#504,.F.);
#688=ORIENTED_EDGE('',*,*,#524,.F.);
#689=ORIENTED_EDGE('',*,*,#522,.F.);
#690=ORIENTED_EDGE('',*,*,#519,.F.);
#691=ORIENTED_EDGE('',*,*,#516,.F.);
#692=ORIENTED_EDGE('',*,*,#513,.F.);
#693=ORIENTED_EDGE('',*,*,#510,.F.);
#694=ORIENTED_EDGE('',*,*,#507,.F.);
#695=ORIENTED_EDGE('',*,*,#506,.F.);
#696=ORIENTED_EDGE('',*,*,#534,.T.);
#697=ORIENTED_EDGE('',*,*,#535,.T.);
#698=ORIENTED_EDGE('',*,*,#532,.F.);
#699=ORIENTED_EDGE('',*,*,#509,.F.);
#700=ORIENTED_EDGE('',*,*,#536,.T.);
#701=ORIENTED_EDGE('',*,*,#537,.T.);
#702=ORIENTED_EDGE('',*,*,#534,.F.);
#703=ORIENTED_EDGE('',*,*,#512,.F.);
#704=ORIENTED_EDGE('',*,*,#538,.T.);
#705=ORIENTED_EDGE('',*,*,#539,.T.);
#706=ORIENTED_EDGE('',*,*,#536,.F.);
#707=ORIENTED_EDGE('',*,*,#515,.F.);
#708=ORIENTED_EDGE('',*,*,#527,.T.);
#709=ORIENTED_EDGE('',*,*,#540,.T.);
#710=ORIENTED_EDGE('',*,*,#538,.F.);
#711=ORIENTED_EDGE('',*,*,#526,.F.);
#712=ORIENTED_EDGE('',*,*,#541,.T.);
#713=ORIENTED_EDGE('',*,*,#542,.F.);
#714=ORIENTED_EDGE('',*,*,#543,.F.);
#715=ORIENTED_EDGE('',*,*,#529,.F.);
#716=ORIENTED_EDGE('',*,*,#544,.T.);
#717=ORIENTED_EDGE('',*,*,#545,.F.);
#718=ORIENTED_EDGE('',*,*,#541,.F.);
#719=ORIENTED_EDGE('',*,*,#531,.F.);
#720=ORIENTED_EDGE('',*,*,#546,.T.);
#721=ORIENTED_EDGE('',*,*,#547,.F.);
#722=ORIENTED_EDGE('',*,*,#544,.F.);
#723=ORIENTED_EDGE('',*,*,#533,.F.);
#724=ORIENTED_EDGE('',*,*,#548,.T.);
#725=ORIENTED_EDGE('',*,*,#549,.F.);
#726=ORIENTED_EDGE('',*,*,#546,.F.);
#727=ORIENTED_EDGE('',*,*,#550,.T.);
#728=ORIENTED_EDGE('',*,*,#551,.T.);
#729=ORIENTED_EDGE('',*,*,#552,.T.);
#730=ORIENTED_EDGE('',*,*,#551,.F.);
#731=ORIENTED_EDGE('',*,*,#553,.T.);
#732=ORIENTED_EDGE('',*,*,#554,.T.);
#733=ORIENTED_EDGE('',*,*,#542,.T.);
#734=ORIENTED_EDGE('',*,*,#545,.T.);
#735=ORIENTED_EDGE('',*,*,#547,.T.);
#736=ORIENTED_EDGE('',*,*,#549,.T.);
#737=ORIENTED_EDGE('',*,*,#555,.T.);
#738=ORIENTED_EDGE('',*,*,#556,.T.);
#739=ORIENTED_EDGE('',*,*,#557,.T.);
#740=ORIENTED_EDGE('',*,*,#558,.T.);
#741=ORIENTED_EDGE('',*,*,#559,.T.);
#742=ORIENTED_EDGE('',*,*,#560,.T.);
#743=ORIENTED_EDGE('',*,*,#561,.T.);
#744=ORIENTED_EDGE('',*,*,#562,.T.);
#745=ORIENTED_EDGE('',*,*,#563,.T.);
#746=ORIENTED_EDGE('',*,*,#564,.T.);
#747=ORIENTED_EDGE('',*,*,#565,.T.);
#748=ORIENTED_EDGE('',*,*,#566,.T.);
#749=ORIENTED_EDGE('',*,*,#567,.T.);
#750=ORIENTED_EDGE('',*,*,#568,.T.);
#751=ORIENTED_EDGE('',*,*,#569,.F.);
#752=ORIENTED_EDGE('',*,*,#570,.F.);
#753=ORIENTED_EDGE('',*,*,#571,.F.);
#754=ORIENTED_EDGE('',*,*,#550,.F.);
#755=ORIENTED_EDGE('',*,*,#552,.F.);
#756=ORIENTED_EDGE('',*,*,#572,.T.);
#757=ORIENTED_EDGE('',*,*,#573,.T.);
#758=ORIENTED_EDGE('',*,*,#572,.F.);
#759=ORIENTED_EDGE('',*,*,#569,.T.);
#760=ORIENTED_EDGE('',*,*,#574,.T.);
#761=ORIENTED_EDGE('',*,*,#575,.T.);
#762=ORIENTED_EDGE('',*,*,#574,.F.);
#763=ORIENTED_EDGE('',*,*,#575,.F.);
#764=ORIENTED_EDGE('',*,*,#576,.T.);
#765=ORIENTED_EDGE('',*,*,#577,.T.);
#766=ORIENTED_EDGE('',*,*,#576,.F.);
#767=ORIENTED_EDGE('',*,*,#571,.T.);
#768=ORIENTED_EDGE('',*,*,#578,.T.);
#769=ORIENTED_EDGE('',*,*,#579,.T.);
#770=ORIENTED_EDGE('',*,*,#578,.F.);
#771=ORIENTED_EDGE('',*,*,#579,.F.);
#772=ORIENTED_EDGE('',*,*,#580,.T.);
#773=ORIENTED_EDGE('',*,*,#581,.T.);
#774=ORIENTED_EDGE('',*,*,#580,.F.);
#775=ORIENTED_EDGE('',*,*,#570,.T.);
#776=ORIENTED_EDGE('',*,*,#582,.T.);
#777=ORIENTED_EDGE('',*,*,#583,.T.);
#778=ORIENTED_EDGE('',*,*,#582,.F.);
#779=ORIENTED_EDGE('',*,*,#583,.F.);
#780=ORIENTED_EDGE('',*,*,#584,.T.);
#781=ORIENTED_EDGE('',*,*,#585,.T.);
#782=ORIENTED_EDGE('',*,*,#584,.F.);
#783=ORIENTED_EDGE('',*,*,#585,.F.);
#784=ORIENTED_EDGE('',*,*,#581,.F.);
#785=ORIENTED_EDGE('',*,*,#573,.F.);
#786=ORIENTED_EDGE('',*,*,#577,.F.);
#787=ORIENTED_EDGE('',*,*,#586,.T.);
#788=ORIENTED_EDGE('',*,*,#587,.T.);
#789=ORIENTED_EDGE('',*,*,#588,.T.);
#790=ORIENTED_EDGE('',*,*,#589,.T.);
#791=ORIENTED_EDGE('',*,*,#587,.F.);
#792=ORIENTED_EDGE('',*,*,#590,.F.);
#793=ORIENTED_EDGE('',*,*,#559,.F.);
#794=ORIENTED_EDGE('',*,*,#591,.F.);
#795=ORIENTED_EDGE('',*,*,#592,.T.);
#796=ORIENTED_EDGE('',*,*,#593,.T.);
#797=ORIENTED_EDGE('',*,*,#594,.T.);
#798=ORIENTED_EDGE('',*,*,#595,.T.);
#799=ORIENTED_EDGE('',*,*,#589,.F.);
#800=ORIENTED_EDGE('',*,*,#596,.F.);
#801=ORIENTED_EDGE('',*,*,#593,.F.);
#802=ORIENTED_EDGE('',*,*,#597,.T.);
#803=ORIENTED_EDGE('',*,*,#598,.T.);
#804=ORIENTED_EDGE('',*,*,#599,.T.);
#805=ORIENTED_EDGE('',*,*,#600,.T.);
#806=ORIENTED_EDGE('',*,*,#601,.T.);
#807=ORIENTED_EDGE('',*,*,#602,.T.);
#808=ORIENTED_EDGE('',*,*,#603,.T.);
#809=ORIENTED_EDGE('',*,*,#604,.T.);
#810=ORIENTED_EDGE('',*,*,#605,.T.);
#811=ORIENTED_EDGE('',*,*,#606,.F.);
#812=ORIENTED_EDGE('',*,*,#607,.F.);
#813=ORIENTED_EDGE('',*,*,#608,.F.);
#814=ORIENTED_EDGE('',*,*,#609,.F.);
#815=ORIENTED_EDGE('',*,*,#595,.F.);
#816=ORIENTED_EDGE('',*,*,#610,.F.);
#817=ORIENTED_EDGE('',*,*,#553,.F.);
#818=ORIENTED_EDGE('',*,*,#611,.F.);
#819=ORIENTED_EDGE('',*,*,#590,.T.);
#820=ORIENTED_EDGE('',*,*,#586,.F.);
#821=ORIENTED_EDGE('',*,*,#605,.F.);
#822=ORIENTED_EDGE('',*,*,#612,.T.);
#823=ORIENTED_EDGE('',*,*,#560,.F.);
#824=ORIENTED_EDGE('',*,*,#611,.T.);
#825=ORIENTED_EDGE('',*,*,#568,.F.);
#826=ORIENTED_EDGE('',*,*,#613,.F.);
#827=ORIENTED_EDGE('',*,*,#597,.F.);
#828=ORIENTED_EDGE('',*,*,#592,.F.);
#829=ORIENTED_EDGE('',*,*,#540,.F.);
#830=ORIENTED_EDGE('',*,*,#543,.T.);
#831=ORIENTED_EDGE('',*,*,#554,.F.);
#832=ORIENTED_EDGE('',*,*,#610,.T.);
#833=ORIENTED_EDGE('',*,*,#594,.F.);
#834=ORIENTED_EDGE('',*,*,#596,.T.);
#835=ORIENTED_EDGE('',*,*,#588,.F.);
#836=ORIENTED_EDGE('',*,*,#591,.T.);
#837=ORIENTED_EDGE('',*,*,#558,.F.);
#838=ORIENTED_EDGE('',*,*,#614,.F.);
#839=ORIENTED_EDGE('',*,*,#598,.F.);
#840=ORIENTED_EDGE('',*,*,#613,.T.);
#841=ORIENTED_EDGE('',*,*,#567,.F.);
#842=ORIENTED_EDGE('',*,*,#615,.F.);
#843=ORIENTED_EDGE('',*,*,#604,.F.);
#844=ORIENTED_EDGE('',*,*,#616,.T.);
#845=ORIENTED_EDGE('',*,*,#561,.F.);
#846=ORIENTED_EDGE('',*,*,#612,.F.);
#847=ORIENTED_EDGE('',*,*,#603,.F.);
#848=ORIENTED_EDGE('',*,*,#617,.T.);
#849=ORIENTED_EDGE('',*,*,#562,.F.);
#850=ORIENTED_EDGE('',*,*,#616,.F.);
#851=ORIENTED_EDGE('',*,*,#599,.F.);
#852=ORIENTED_EDGE('',*,*,#615,.T.);
#853=ORIENTED_EDGE('',*,*,#566,.F.);
#854=ORIENTED_EDGE('',*,*,#618,.F.);
#855=ORIENTED_EDGE('',*,*,#600,.F.);
#856=ORIENTED_EDGE('',*,*,#618,.T.);
#857=ORIENTED_EDGE('',*,*,#565,.F.);
#858=ORIENTED_EDGE('',*,*,#619,.F.);
#859=ORIENTED_EDGE('',*,*,#601,.F.);
#860=ORIENTED_EDGE('',*,*,#619,.T.);
#861=ORIENTED_EDGE('',*,*,#564,.F.);
#862=ORIENTED_EDGE('',*,*,#620,.F.);
#863=ORIENTED_EDGE('',*,*,#602,.F.);
#864=ORIENTED_EDGE('',*,*,#620,.T.);
#865=ORIENTED_EDGE('',*,*,#563,.F.);
#866=ORIENTED_EDGE('',*,*,#617,.F.);
#867=ORIENTED_EDGE('',*,*,#539,.F.);
#868=ORIENTED_EDGE('',*,*,#614,.T.);
#869=ORIENTED_EDGE('',*,*,#557,.F.);
#870=ORIENTED_EDGE('',*,*,#621,.F.);
#871=ORIENTED_EDGE('',*,*,#537,.F.);
#872=ORIENTED_EDGE('',*,*,#621,.T.);
#873=ORIENTED_EDGE('',*,*,#556,.F.);
#874=ORIENTED_EDGE('',*,*,#622,.F.);
#875=ORIENTED_EDGE('',*,*,#535,.F.);
#876=ORIENTED_EDGE('',*,*,#622,.T.);
#877=ORIENTED_EDGE('',*,*,#555,.F.);
#878=ORIENTED_EDGE('',*,*,#548,.F.);
#879=ORIENTED_EDGE('',*,*,#606,.T.);
#880=ORIENTED_EDGE('',*,*,#623,.T.);
#881=ORIENTED_EDGE('',*,*,#624,.T.);
#882=ORIENTED_EDGE('',*,*,#623,.F.);
#883=ORIENTED_EDGE('',*,*,#624,.F.);
#884=ORIENTED_EDGE('',*,*,#625,.T.);
#885=ORIENTED_EDGE('',*,*,#626,.T.);
#886=ORIENTED_EDGE('',*,*,#625,.F.);
#887=ORIENTED_EDGE('',*,*,#609,.T.);
#888=ORIENTED_EDGE('',*,*,#627,.T.);
#889=ORIENTED_EDGE('',*,*,#628,.T.);
#890=ORIENTED_EDGE('',*,*,#627,.F.);
#891=ORIENTED_EDGE('',*,*,#628,.F.);
#892=ORIENTED_EDGE('',*,*,#629,.T.);
#893=ORIENTED_EDGE('',*,*,#630,.T.);
#894=ORIENTED_EDGE('',*,*,#629,.F.);
#895=ORIENTED_EDGE('',*,*,#607,.T.);
#896=ORIENTED_EDGE('',*,*,#631,.T.);
#897=ORIENTED_EDGE('',*,*,#632,.T.);
#898=ORIENTED_EDGE('',*,*,#631,.F.);
#899=ORIENTED_EDGE('',*,*,#632,.F.);
#900=ORIENTED_EDGE('',*,*,#633,.T.);
#901=ORIENTED_EDGE('',*,*,#634,.T.);
#902=ORIENTED_EDGE('',*,*,#633,.F.);
#903=ORIENTED_EDGE('',*,*,#608,.T.);
#904=ORIENTED_EDGE('',*,*,#635,.T.);
#905=ORIENTED_EDGE('',*,*,#636,.T.);
#906=ORIENTED_EDGE('',*,*,#635,.F.);
#907=ORIENTED_EDGE('',*,*,#636,.F.);
#908=ORIENTED_EDGE('',*,*,#637,.T.);
#909=ORIENTED_EDGE('',*,*,#638,.T.);
#910=ORIENTED_EDGE('',*,*,#637,.F.);
#911=ORIENTED_EDGE('',*,*,#630,.F.);
#912=ORIENTED_EDGE('',*,*,#634,.F.);
#913=ORIENTED_EDGE('',*,*,#626,.F.);
#914=ORIENTED_EDGE('',*,*,#638,.F.);
#915=PLANE('',#1011);
#916=PLANE('',#1015);
#917=PLANE('',#1019);
#918=PLANE('',#1023);
#919=PLANE('',#1029);
#920=PLANE('',#1032);
#921=PLANE('',#1033);
#922=PLANE('',#1036);
#923=PLANE('',#1039);
#924=PLANE('',#1042);
#925=PLANE('',#1045);
#926=PLANE('',#1049);
#927=PLANE('',#1073);
#928=PLANE('',#1074);
#929=PLANE('',#1075);
#930=PLANE('',#1076);
#931=PLANE('',#1080);
#932=PLANE('',#1084);
#933=PLANE('',#1093);
#934=PLANE('',#1094);
#935=PLANE('',#1095);
#936=PLANE('',#1096);
#937=PLANE('',#1099);
#938=PLANE('',#1100);
#939=PLANE('',#1102);
#940=PLANE('',#1105);
#941=PLANE('',#1123);
#942=PLANE('',#1124);
#943=PLANE('',#1125);
#944=PLANE('',#1126);
#945=ADVANCED_FACE('',(#109),#915,.T.);
#946=ADVANCED_FACE('',(#110),#93,.T.);
#947=ADVANCED_FACE('',(#111),#916,.T.);
#948=ADVANCED_FACE('',(#112),#94,.T.);
#949=ADVANCED_FACE('',(#113),#917,.T.);
#950=ADVANCED_FACE('',(#114),#95,.T.);
#951=ADVANCED_FACE('',(#115),#918,.T.);
#952=ADVANCED_FACE('',(#116),#96,.T.);
#953=ADVANCED_FACE('',(#117),#97,.T.);
#954=ADVANCED_FACE('',(#118),#919,.T.);
#955=ADVANCED_FACE('',(#119),#98,.T.);
#956=ADVANCED_FACE('',(#120),#920,.T.);
#957=ADVANCED_FACE('',(#121),#921,.F.);
#958=ADVANCED_FACE('',(#122),#99,.T.);
#959=ADVANCED_FACE('',(#123),#922,.T.);
#960=ADVANCED_FACE('',(#124),#100,.T.);
#961=ADVANCED_FACE('',(#125),#923,.T.);
#962=ADVANCED_FACE('',(#126),#23,.T.);
#963=ADVANCED_FACE('',(#127),#924,.T.);
#964=ADVANCED_FACE('',(#128),#24,.T.);
#965=ADVANCED_FACE('',(#129),#925,.T.);
#966=ADVANCED_FACE('',(#130),#101,.F.);
#967=ADVANCED_FACE('',(#131,#15,#16,#17,#18),#926,.T.);
#968=ADVANCED_FACE('',(#132),#25,.F.);
#969=ADVANCED_FACE('',(#133),#102,.F.);
#970=ADVANCED_FACE('',(#134),#26,.F.);
#971=ADVANCED_FACE('',(#135),#103,.F.);
#972=ADVANCED_FACE('',(#136),#27,.F.);
#973=ADVANCED_FACE('',(#137),#104,.F.);
#974=ADVANCED_FACE('',(#138),#28,.F.);
#975=ADVANCED_FACE('',(#139),#927,.T.);
#976=ADVANCED_FACE('',(#140),#928,.T.);
#977=ADVANCED_FACE('',(#141),#929,.T.);
#978=ADVANCED_FACE('',(#142),#930,.T.);
#979=ADVANCED_FACE('',(#143),#29,.F.);
#980=ADVANCED_FACE('',(#144),#931,.F.);
#981=ADVANCED_FACE('',(#145),#30,.F.);
#982=ADVANCED_FACE('',(#146,#19,#20,#21,#22),#932,.T.);
#983=ADVANCED_FACE('',(#147),#933,.F.);
#984=ADVANCED_FACE('',(#148),#934,.T.);
#985=ADVANCED_FACE('',(#149),#935,.T.);
#986=ADVANCED_FACE('',(#150),#936,.T.);
#987=ADVANCED_FACE('',(#151),#31,.F.);
#988=ADVANCED_FACE('',(#152),#32,.F.);
#989=ADVANCED_FACE('',(#153),#937,.T.);
#990=ADVANCED_FACE('',(#154),#938,.T.);
#991=ADVANCED_FACE('',(#155),#33,.F.);
#992=ADVANCED_FACE('',(#156),#939,.T.);
#993=ADVANCED_FACE('',(#157),#34,.F.);
#994=ADVANCED_FACE('',(#158),#35,.T.);
#995=ADVANCED_FACE('',(#159),#940,.T.);
#996=ADVANCED_FACE('',(#160),#36,.T.);
#997=ADVANCED_FACE('',(#161),#105,.F.);
#998=ADVANCED_FACE('',(#162),#37,.F.);
#999=ADVANCED_FACE('',(#163),#106,.F.);
#1000=ADVANCED_FACE('',(#164),#38,.F.);
#1001=ADVANCED_FACE('',(#165),#107,.F.);
#1002=ADVANCED_FACE('',(#166),#39,.F.);
#1003=ADVANCED_FACE('',(#167),#108,.F.);
#1004=ADVANCED_FACE('',(#168),#40,.F.);
#1005=ADVANCED_FACE('',(#169),#941,.T.);
#1006=ADVANCED_FACE('',(#170),#942,.T.);
#1007=ADVANCED_FACE('',(#171),#943,.T.);
#1008=ADVANCED_FACE('',(#172),#944,.T.);
#1009=CLOSED_SHELL('',(#945,#946,#947,#948,#949,#950,#951,#952,#953,#954,
#955,#956,#957,#958,#959,#960,#961,#962,#963,#964,#965,#966,#967,#968,#969,
#970,#971,#972,#973,#974,#975,#976,#977,#978,#979,#980,#981,#982,#983,#984,
#985,#986,#987,#988,#989,#990,#991,#992,#993,#994,#995,#996,#997,#998,#999,
#1000,#1001,#1002,#1003,#1004,#1005,#1006,#1007,#1008));
#1010=AXIS2_PLACEMENT_3D('',#1447,#1127,#1128);
#1011=AXIS2_PLACEMENT_3D('',#1448,#1129,#1130);
#1012=AXIS2_PLACEMENT_3D('',#1457,#1135,#1136);
#1013=AXIS2_PLACEMENT_3D('',#1461,#1138,#1139);
#1014=AXIS2_PLACEMENT_3D('',#1462,#1140,#1141);
#1015=AXIS2_PLACEMENT_3D('',#1463,#1142,#1143);
#1016=AXIS2_PLACEMENT_3D('',#1469,#1147,#1148);
#1017=AXIS2_PLACEMENT_3D('',#1473,#1150,#1151);
#1018=AXIS2_PLACEMENT_3D('',#1474,#1152,#1153);
#1019=AXIS2_PLACEMENT_3D('',#1475,#1154,#1155);
#1020=AXIS2_PLACEMENT_3D('',#1481,#1159,#1160);
#1021=AXIS2_PLACEMENT_3D('',#1485,#1162,#1163);
#1022=AXIS2_PLACEMENT_3D('',#1486,#1164,#1165);
#1023=AXIS2_PLACEMENT_3D('',#1487,#1166,#1167);
#1024=AXIS2_PLACEMENT_3D('',#1493,#1171,#1172);
#1025=AXIS2_PLACEMENT_3D('',#1494,#1173,#1174);
#1026=AXIS2_PLACEMENT_3D('',#1495,#1175,#1176);
#1027=AXIS2_PLACEMENT_3D('',#1496,#1177,#1178);
#1028=AXIS2_PLACEMENT_3D('',#1500,#1180,#1181);
#1029=AXIS2_PLACEMENT_3D('',#1502,#1183,#1184);
#1030=AXIS2_PLACEMENT_3D('',#1506,#1187,#1188);
#1031=AXIS2_PLACEMENT_3D('',#1509,#1190,#1191);
#1032=AXIS2_PLACEMENT_3D('',#1510,#1192,#1193);
#1033=AXIS2_PLACEMENT_3D('',#1514,#1196,#1197);
#1034=AXIS2_PLACEMENT_3D('',#1515,#1198,#1199);
#1035=AXIS2_PLACEMENT_3D('',#1518,#1201,#1202);
#1036=AXIS2_PLACEMENT_3D('',#1519,#1203,#1204);
#1037=AXIS2_PLACEMENT_3D('',#1523,#1207,#1208);
#1038=AXIS2_PLACEMENT_3D('',#1526,#1210,#1211);
#1039=AXIS2_PLACEMENT_3D('',#1527,#1212,#1213);
#1040=AXIS2_PLACEMENT_3D('',#1529,#1215,#1216);
#1041=AXIS2_PLACEMENT_3D('',#1533,#1218,#1219);
#1042=AXIS2_PLACEMENT_3D('',#1535,#1221,#1222);
#1043=AXIS2_PLACEMENT_3D('',#1539,#1225,#1226);
#1044=AXIS2_PLACEMENT_3D('',#1542,#1228,#1229);
#1045=AXIS2_PLACEMENT_3D('',#1543,#1230,#1231);
#1046=AXIS2_PLACEMENT_3D('',#1547,#1234,#1235);
#1047=AXIS2_PLACEMENT_3D('',#1549,#1236,#1237);
#1048=AXIS2_PLACEMENT_3D('',#1552,#1239,#1240);
#1049=AXIS2_PLACEMENT_3D('',#1553,#1241,#1242);
#1050=AXIS2_PLACEMENT_3D('',#1559,#1245,#1246);
#1051=AXIS2_PLACEMENT_3D('',#1563,#1248,#1249);
#1052=AXIS2_PLACEMENT_3D('',#1571,#1253,#1254);
#1053=AXIS2_PLACEMENT_3D('',#1575,#1256,#1257);
#1054=AXIS2_PLACEMENT_3D('',#1579,#1259,#1260);
#1055=AXIS2_PLACEMENT_3D('',#1583,#1262,#1263);
#1056=AXIS2_PLACEMENT_3D('',#1586,#1265,#1266);
#1057=AXIS2_PLACEMENT_3D('',#1588,#1267,#1268);
#1058=AXIS2_PLACEMENT_3D('',#1590,#1269,#1270);
#1059=AXIS2_PLACEMENT_3D('',#1591,#1271,#1272);
#1060=AXIS2_PLACEMENT_3D('',#1594,#1274,#1275);
#1061=AXIS2_PLACEMENT_3D('',#1595,#1276,#1277);
#1062=AXIS2_PLACEMENT_3D('',#1598,#1279,#1280);
#1063=AXIS2_PLACEMENT_3D('',#1599,#1281,#1282);
#1064=AXIS2_PLACEMENT_3D('',#1602,#1284,#1285);
#1065=AXIS2_PLACEMENT_3D('',#1603,#1286,#1287);
#1066=AXIS2_PLACEMENT_3D('',#1606,#1289,#1290);
#1067=AXIS2_PLACEMENT_3D('',#1607,#1291,#1292);
#1068=AXIS2_PLACEMENT_3D('',#1610,#1294,#1295);
#1069=AXIS2_PLACEMENT_3D('',#1611,#1296,#1297);
#1070=AXIS2_PLACEMENT_3D('',#1614,#1299,#1300);
#1071=AXIS2_PLACEMENT_3D('',#1615,#1301,#1302);
#1072=AXIS2_PLACEMENT_3D('',#1618,#1304,#1305);
#1073=AXIS2_PLACEMENT_3D('',#1619,#1306,#1307);
#1074=AXIS2_PLACEMENT_3D('',#1620,#1308,#1309);
#1075=AXIS2_PLACEMENT_3D('',#1621,#1310,#1311);
#1076=AXIS2_PLACEMENT_3D('',#1622,#1312,#1313);
#1077=AXIS2_PLACEMENT_3D('',#1623,#1314,#1315);
#1078=AXIS2_PLACEMENT_3D('',#1626,#1316,#1317);
#1079=AXIS2_PLACEMENT_3D('',#1630,#1319,#1320);
#1080=AXIS2_PLACEMENT_3D('',#1632,#1322,#1323);
#1081=AXIS2_PLACEMENT_3D('',#1635,#1326,#1327);
#1082=AXIS2_PLACEMENT_3D('',#1638,#1328,#1329);
#1083=AXIS2_PLACEMENT_3D('',#1642,#1331,#1332);
#1084=AXIS2_PLACEMENT_3D('',#1644,#1334,#1335);
#1085=AXIS2_PLACEMENT_3D('',#1649,#1338,#1339);
#1086=AXIS2_PLACEMENT_3D('',#1653,#1341,#1342);
#1087=AXIS2_PLACEMENT_3D('',#1657,#1344,#1345);
#1088=AXIS2_PLACEMENT_3D('',#1661,#1347,#1348);
#1089=AXIS2_PLACEMENT_3D('',#1664,#1350,#1351);
#1090=AXIS2_PLACEMENT_3D('',#1666,#1352,#1353);
#1091=AXIS2_PLACEMENT_3D('',#1668,#1354,#1355);
#1092=AXIS2_PLACEMENT_3D('',#1670,#1356,#1357);
#1093=AXIS2_PLACEMENT_3D('',#1671,#1358,#1359);
#1094=AXIS2_PLACEMENT_3D('',#1674,#1362,#1363);
#1095=AXIS2_PLACEMENT_3D('',#1676,#1365,#1366);
#1096=AXIS2_PLACEMENT_3D('',#1678,#1368,#1369);
#1097=AXIS2_PLACEMENT_3D('',#1680,#1371,#1372);
#1098=AXIS2_PLACEMENT_3D('',#1682,#1374,#1375);
#1099=AXIS2_PLACEMENT_3D('',#1684,#1377,#1378);
#1100=AXIS2_PLACEMENT_3D('',#1686,#1380,#1381);
#1101=AXIS2_PLACEMENT_3D('',#1688,#1383,#1384);
#1102=AXIS2_PLACEMENT_3D('',#1690,#1386,#1387);
#1103=AXIS2_PLACEMENT_3D('',#1692,#1389,#1390);
#1104=AXIS2_PLACEMENT_3D('',#1693,#1391,#1392);
#1105=AXIS2_PLACEMENT_3D('',#1695,#1394,#1395);
#1106=AXIS2_PLACEMENT_3D('',#1697,#1397,#1398);
#1107=AXIS2_PLACEMENT_3D('',#1698,#1399,#1400);
#1108=AXIS2_PLACEMENT_3D('',#1701,#1402,#1403);
#1109=AXIS2_PLACEMENT_3D('',#1702,#1404,#1405);
#1110=AXIS2_PLACEMENT_3D('',#1705,#1407,#1408);
#1111=AXIS2_PLACEMENT_3D('',#1706,#1409,#1410);
#1112=AXIS2_PLACEMENT_3D('',#1709,#1412,#1413);
#1113=AXIS2_PLACEMENT_3D('',#1710,#1414,#1415);
#1114=AXIS2_PLACEMENT_3D('',#1713,#1417,#1418);
#1115=AXIS2_PLACEMENT_3D('',#1714,#1419,#1420);
#1116=AXIS2_PLACEMENT_3D('',#1717,#1422,#1423);
#1117=AXIS2_PLACEMENT_3D('',#1718,#1424,#1425);
#1118=AXIS2_PLACEMENT_3D('',#1721,#1427,#1428);
#1119=AXIS2_PLACEMENT_3D('',#1722,#1429,#1430);
#1120=AXIS2_PLACEMENT_3D('',#1725,#1432,#1433);
#1121=AXIS2_PLACEMENT_3D('',#1726,#1434,#1435);
#1122=AXIS2_PLACEMENT_3D('',#1729,#1437,#1438);
#1123=AXIS2_PLACEMENT_3D('',#1730,#1439,#1440);
#1124=AXIS2_PLACEMENT_3D('',#1731,#1441,#1442);
#1125=AXIS2_PLACEMENT_3D('',#1732,#1443,#1444);
#1126=AXIS2_PLACEMENT_3D('',#1733,#1445,#1446);
#1127=DIRECTION('axis',(0.,0.,1.));
#1128=DIRECTION('refdir',(1.,0.,0.));
#1129=DIRECTION('center_axis',(0.,-0.382683432365096,-0.923879532511284));
#1130=DIRECTION('ref_axis',(-1.,0.,0.));
#1131=DIRECTION('',(0.,-0.923879532511284,0.382683432365096));
#1132=DIRECTION('',(-1.,0.,0.));
#1133=DIRECTION('',(-6.67609301355166E-16,0.923879532511284,-0.382683432365096));
#1134=DIRECTION('',(1.,0.,0.));
#1135=DIRECTION('center_axis',(0.,3.48909435263058E-15,1.));
#1136=DIRECTION('ref_axis',(0.,-1.,0.));
#1137=DIRECTION('',(0.923879532511289,2.67043720542066E-15,0.382683432365084));
#1138=DIRECTION('center_axis',(-5.81265006299038E-16,0.,-1.));
#1139=DIRECTION('ref_axis',(0.,-1.,0.));
#1140=DIRECTION('center_axis',(0.,0.,1.));
#1141=DIRECTION('ref_axis',(0.,-1.,0.));
#1142=DIRECTION('center_axis',(0.382683432365096,-3.43903372212598E-16,
-0.923879532511284));
#1143=DIRECTION('ref_axis',(-0.923879532511284,0.,-0.382683432365096));
#1144=DIRECTION('',(0.923879532511282,0.,0.3826834323651));
#1145=DIRECTION('',(-8.98662819258136E-16,-1.,0.));
#1146=DIRECTION('',(8.98662819258136E-16,1.,0.));
#1147=DIRECTION('center_axis',(0.,0.,1.));
#1148=DIRECTION('ref_axis',(1.,0.,1.03166148990484E-16));
#1149=DIRECTION('',(0.,0.923879532511283,0.382683432365099));
#1150=DIRECTION('center_axis',(1.99626365799669E-16,-1.99626365799669E-16,
-1.));
#1151=DIRECTION('ref_axis',(1.,0.,1.99626365799669E-16));
#1152=DIRECTION('center_axis',(0.,0.,1.));
#1153=DIRECTION('ref_axis',(1.,0.,0.));
#1154=DIRECTION('center_axis',(-1.18843065106099E-16,0.382683432365086,
-0.923879532511288));
#1155=DIRECTION('ref_axis',(-1.,0.,1.28634806729682E-16));
#1156=DIRECTION('',(0.,0.923879532511289,0.382683432365083));
#1157=DIRECTION('',(1.,3.10551895000044E-16,0.));
#1158=DIRECTION('',(-1.,-3.10551895000044E-16,0.));
#1159=DIRECTION('center_axis',(3.48909435263058E-15,0.,1.));
#1160=DIRECTION('ref_axis',(-4.85487759955221E-17,1.,0.));
#1161=DIRECTION('',(-0.923879532511286,0.,0.382683432365093));
#1162=DIRECTION('center_axis',(1.9375500209968E-16,1.82016973763136E-32,
-1.));
#1163=DIRECTION('ref_axis',(-9.39418191998446E-17,1.,0.));
#1164=DIRECTION('center_axis',(0.,0.,1.));
#1165=DIRECTION('ref_axis',(0.,1.,0.));
#1166=DIRECTION('center_axis',(-0.382683432365087,7.16465358776228E-18,
-0.923879532511288));
#1167=DIRECTION('ref_axis',(-0.923879532511288,0.,0.382683432365087));
#1168=DIRECTION('',(-0.923879532511288,0.,0.382683432365088));
#1169=DIRECTION('',(1.87221420678779E-17,1.,-1.08947049901316E-33));
#1170=DIRECTION('',(-1.87221420678779E-17,-1.,0.));
#1171=DIRECTION('center_axis',(0.,3.48909435263061E-15,1.));
#1172=DIRECTION('ref_axis',(-1.,3.65863575902255E-16,0.));
#1173=DIRECTION('center_axis',(0.,0.,-1.));
#1174=DIRECTION('ref_axis',(-1.,3.75767276799378E-16,0.));
#1175=DIRECTION('center_axis',(0.,0.,1.));
#1176=DIRECTION('ref_axis',(-1.,3.5527136788005E-16,0.));
#1177=DIRECTION('center_axis',(0.,0.,1.));
#1178=DIRECTION('ref_axis',(0.,1.,0.));
#1179=DIRECTION('',(-0.707106781186546,0.,0.707106781186549));
#1180=DIRECTION('center_axis',(0.,0.,-1.));
#1181=DIRECTION('ref_axis',(0.,1.,0.));
#1182=DIRECTION('',(7.85046229341889E-16,0.707106781186546,0.707106781186549));
#1183=DIRECTION('center_axis',(-0.707106781186546,1.32385536145343E-17,
-0.707106781186549));
#1184=DIRECTION('ref_axis',(-0.707106781186549,0.,0.707106781186546));
#1185=DIRECTION('',(-0.707106781186549,0.,0.707106781186546));
#1186=DIRECTION('',(1.87221420678779E-17,1.,0.));
#1187=DIRECTION('center_axis',(0.,0.,1.));
#1188=DIRECTION('ref_axis',(-1.,3.5527136788005E-16,0.));
#1189=DIRECTION('',(-1.57009245868377E-15,0.707106781186548,-0.707106781186547));
#1190=DIRECTION('center_axis',(0.,0.,-1.));
#1191=DIRECTION('ref_axis',(-1.,3.5527136788005E-16,0.));
#1192=DIRECTION('center_axis',(0.,-0.707106781186547,-0.707106781186548));
#1193=DIRECTION('ref_axis',(-1.,0.,0.));
#1194=DIRECTION('',(0.,-0.707106781186548,0.707106781186547));
#1195=DIRECTION('',(-1.,0.,0.));
#1196=DIRECTION('center_axis',(0.,0.,1.));
#1197=DIRECTION('ref_axis',(1.,0.,0.));
#1198=DIRECTION('center_axis',(0.,0.,1.));
#1199=DIRECTION('ref_axis',(0.,-1.,0.));
#1200=DIRECTION('',(0.707106781186546,-3.92523114670944E-16,0.707106781186549));
#1201=DIRECTION('center_axis',(0.,0.,-1.));
#1202=DIRECTION('ref_axis',(0.,-1.,0.));
#1203=DIRECTION('center_axis',(0.707106781186543,-6.35450573497644E-16,
-0.707106781186553));
#1204=DIRECTION('ref_axis',(-0.707106781186553,0.,-0.707106781186543));
#1205=DIRECTION('',(0.707106781186552,0.,0.707106781186542));
#1206=DIRECTION('',(-8.98662819258136E-16,-1.,0.));
#1207=DIRECTION('center_axis',(0.,0.,1.));
#1208=DIRECTION('ref_axis',(1.,0.,0.));
#1209=DIRECTION('',(0.,0.707106781186534,0.707106781186561));
#1210=DIRECTION('center_axis',(0.,0.,-1.));
#1211=DIRECTION('ref_axis',(1.,0.,0.));
#1212=DIRECTION('center_axis',(-2.19593350864864E-16,0.707106781186549,
-0.707106781186546));
#1213=DIRECTION('ref_axis',(-1.,0.,3.10551895000045E-16));
#1214=DIRECTION('',(1.,3.10551895000044E-16,0.));
#1215=DIRECTION('center_axis',(0.,0.,1.));
#1216=DIRECTION('ref_axis',(0.,1.,0.));
#1217=DIRECTION('',(0.,0.,1.));
#1218=DIRECTION('center_axis',(0.,0.,1.));
#1219=DIRECTION('ref_axis',(0.,1.,0.));
#1220=DIRECTION('',(0.,0.,1.));
#1221=DIRECTION('center_axis',(-1.,1.87221420678779E-17,0.));
#1222=DIRECTION('ref_axis',(-1.87221420678779E-17,-1.,0.));
#1223=DIRECTION('',(0.,0.,1.));
#1224=DIRECTION('',(-1.87221420678779E-17,-1.,0.));
#1225=DIRECTION('center_axis',(0.,0.,1.));
#1226=DIRECTION('ref_axis',(-1.,3.5527136788005E-16,0.));
#1227=DIRECTION('',(0.,0.,1.));
#1228=DIRECTION('center_axis',(0.,0.,1.));
#1229=DIRECTION('ref_axis',(-1.,3.5527136788005E-16,0.));
#1230=DIRECTION('center_axis',(0.,-1.,0.));
#1231=DIRECTION('ref_axis',(1.,0.,0.));
#1232=DIRECTION('',(0.,0.,1.));
#1233=DIRECTION('',(1.,0.,0.));
#1234=DIRECTION('center_axis',(0.,0.,1.));
#1235=DIRECTION('ref_axis',(1.,0.,0.));
#1236=DIRECTION('center_axis',(0.,0.,1.));
#1237=DIRECTION('ref_axis',(1.,0.,0.));
#1238=DIRECTION('',(0.707106781186552,8.65956056235499E-17,-0.707106781186543));
#1239=DIRECTION('center_axis',(0.,0.,-1.));
#1240=DIRECTION('ref_axis',(1.,0.,0.));
#1241=DIRECTION('center_axis',(0.,0.,1.));
#1242=DIRECTION('ref_axis',(1.,0.,0.));
#1243=DIRECTION('',(-5.55111512312578E-16,1.,0.));
#1244=DIRECTION('',(-1.,-3.10551895000044E-16,0.));
#1245=DIRECTION('center_axis',(0.,0.,1.));
#1246=DIRECTION('ref_axis',(0.,-1.,0.));
#1247=DIRECTION('',(8.98662819258136E-16,1.,0.));
#1248=DIRECTION('center_axis',(0.,0.,1.));
#1249=DIRECTION('ref_axis',(1.,0.,0.));
#1250=DIRECTION('',(-1.,-3.10551895000044E-16,0.));
#1251=DIRECTION('',(5.55111512312578E-16,-1.,0.));
#1252=DIRECTION('',(1.,3.10551895000044E-16,0.));
#1253=DIRECTION('center_axis',(0.,0.,-1.));
#1254=DIRECTION('ref_axis',(1.,0.,0.));
#1255=DIRECTION('',(0.,-1.,0.));
#1256=DIRECTION('center_axis',(0.,0.,-1.));
#1257=DIRECTION('ref_axis',(0.,-1.,0.));
#1258=DIRECTION('',(-1.,0.,0.));
#1259=DIRECTION('center_axis',(0.,0.,-1.));
#1260=DIRECTION('ref_axis',(-1.,0.,0.));
#1261=DIRECTION('',(1.87221420678779E-17,1.,0.));
#1262=DIRECTION('center_axis',(0.,0.,-1.));
#1263=DIRECTION('ref_axis',(0.,1.,0.));
#1264=DIRECTION('',(1.,3.10551895000044E-16,0.));
#1265=DIRECTION('center_axis',(0.,0.,1.));
#1266=DIRECTION('ref_axis',(1.,0.,0.));
#1267=DIRECTION('center_axis',(0.,0.,1.));
#1268=DIRECTION('ref_axis',(1.,0.,0.));
#1269=DIRECTION('center_axis',(0.,0.,1.));
#1270=DIRECTION('ref_axis',(1.,0.,0.));
#1271=DIRECTION('center_axis',(0.,0.,-1.));
#1272=DIRECTION('ref_axis',(1.,0.,0.));
#1273=DIRECTION('',(0.,0.,-1.));
#1274=DIRECTION('center_axis',(0.,0.,-1.));
#1275=DIRECTION('ref_axis',(1.,0.,0.));
#1276=DIRECTION('center_axis',(0.,0.,1.));
#1277=DIRECTION('ref_axis',(1.,0.,0.));
#1278=DIRECTION('',(0.707106781186547,8.65956056235493E-17,-0.707106781186548));
#1279=DIRECTION('center_axis',(0.,0.,-1.));
#1280=DIRECTION('ref_axis',(1.,0.,0.));
#1281=DIRECTION('center_axis',(0.,0.,-1.));
#1282=DIRECTION('ref_axis',(1.,0.,0.));
#1283=DIRECTION('',(0.,0.,-1.));
#1284=DIRECTION('center_axis',(0.,0.,-1.));
#1285=DIRECTION('ref_axis',(1.,0.,0.));
#1286=DIRECTION('center_axis',(0.,0.,1.));
#1287=DIRECTION('ref_axis',(1.,0.,0.));
#1288=DIRECTION('',(0.707106781186547,8.65956056235493E-17,-0.707106781186548));
#1289=DIRECTION('center_axis',(0.,0.,-1.));
#1290=DIRECTION('ref_axis',(1.,0.,0.));
#1291=DIRECTION('center_axis',(0.,0.,-1.));
#1292=DIRECTION('ref_axis',(1.,0.,0.));
#1293=DIRECTION('',(0.,0.,-1.));
#1294=DIRECTION('center_axis',(0.,0.,-1.));
#1295=DIRECTION('ref_axis',(1.,0.,0.));
#1296=DIRECTION('center_axis',(0.,0.,1.));
#1297=DIRECTION('ref_axis',(1.,0.,0.));
#1298=DIRECTION('',(0.707106781186552,8.65956056235499E-17,-0.707106781186543));
#1299=DIRECTION('center_axis',(0.,0.,-1.));
#1300=DIRECTION('ref_axis',(1.,0.,0.));
#1301=DIRECTION('center_axis',(0.,0.,-1.));
#1302=DIRECTION('ref_axis',(1.,0.,0.));
#1303=DIRECTION('',(0.,0.,-1.));
#1304=DIRECTION('center_axis',(0.,0.,-1.));
#1305=DIRECTION('ref_axis',(1.,0.,0.));
#1306=DIRECTION('center_axis',(0.,0.,1.));
#1307=DIRECTION('ref_axis',(1.,0.,0.));
#1308=DIRECTION('center_axis',(0.,0.,1.));
#1309=DIRECTION('ref_axis',(1.,0.,0.));
#1310=DIRECTION('center_axis',(0.,0.,1.));
#1311=DIRECTION('ref_axis',(1.,0.,0.));
#1312=DIRECTION('center_axis',(0.,0.,1.));
#1313=DIRECTION('ref_axis',(1.,0.,0.));
#1314=DIRECTION('center_axis',(5.55111512312578E-16,-1.,0.));
#1315=DIRECTION('ref_axis',(0.707106781186549,0.,-0.707106781186546));
#1316=DIRECTION('center_axis',(3.10551895000044E-16,-1.,0.));
#1317=DIRECTION('ref_axis',(0.707106781186549,0.,-0.707106781186546));
#1318=DIRECTION('',(-5.55111512312578E-16,1.,0.));
#1319=DIRECTION('center_axis',(-3.10551895000044E-16,1.,0.));
#1320=DIRECTION('ref_axis',(0.707106781186549,0.,-0.707106781186546));
#1321=DIRECTION('',(5.55111512312578E-16,-1.,0.));
#1322=DIRECTION('center_axis',(1.,5.55111512312578E-16,0.));
#1323=DIRECTION('ref_axis',(0.,0.,1.));
#1324=DIRECTION('',(0.,0.,-1.));
#1325=DIRECTION('',(0.,0.,1.));
#1326=DIRECTION('center_axis',(5.55111512312578E-16,-1.,0.));
#1327=DIRECTION('ref_axis',(-0.707106781186547,0.,-0.707106781186548));
#1328=DIRECTION('center_axis',(3.10551895000044E-16,-1.,0.));
#1329=DIRECTION('ref_axis',(-0.707106781186547,0.,-0.707106781186548));
#1330=DIRECTION('',(-5.55111512312578E-16,1.,0.));
#1331=DIRECTION('center_axis',(-3.10551895000044E-16,1.,0.));
#1332=DIRECTION('ref_axis',(-0.707106781186547,0.,-0.707106781186548));
#1333=DIRECTION('',(5.55111512312578E-16,-1.,0.));
#1334=DIRECTION('center_axis',(0.,0.,1.));
#1335=DIRECTION('ref_axis',(1.,0.,0.));
#1336=DIRECTION('',(1.,3.10551895000044E-16,0.));
#1337=DIRECTION('',(-1.,-3.10551895000044E-16,0.));
#1338=DIRECTION('center_axis',(0.,0.,1.));
#1339=DIRECTION('ref_axis',(0.,1.,0.));
#1340=DIRECTION('',(-1.87221420678779E-17,-1.,0.));
#1341=DIRECTION('center_axis',(0.,0.,1.));
#1342=DIRECTION('ref_axis',(-1.,0.,0.));
#1343=DIRECTION('',(1.,0.,0.));
#1344=DIRECTION('center_axis',(0.,0.,1.));
#1345=DIRECTION('ref_axis',(0.,-1.,0.));
#1346=DIRECTION('',(0.,1.,0.));
#1347=DIRECTION('center_axis',(0.,0.,1.));
#1348=DIRECTION('ref_axis',(1.,0.,0.));
#1349=DIRECTION('',(-1.,-3.10551895000044E-16,0.));
#1350=DIRECTION('center_axis',(0.,0.,1.));
#1351=DIRECTION('ref_axis',(1.,0.,0.));
#1352=DIRECTION('center_axis',(0.,0.,1.));
#1353=DIRECTION('ref_axis',(1.,0.,0.));
#1354=DIRECTION('center_axis',(0.,0.,1.));
#1355=DIRECTION('ref_axis',(1.,0.,0.));
#1356=DIRECTION('center_axis',(0.,0.,1.));
#1357=DIRECTION('ref_axis',(1.,0.,0.));
#1358=DIRECTION('center_axis',(-1.,-5.55111512312578E-16,0.));
#1359=DIRECTION('ref_axis',(0.,0.,-1.));
#1360=DIRECTION('',(0.,0.,-1.));
#1361=DIRECTION('',(0.,0.,1.));
#1362=DIRECTION('center_axis',(3.10551895000044E-16,-1.,0.));
#1363=DIRECTION('ref_axis',(1.,3.10551895000044E-16,0.));
#1364=DIRECTION('',(0.,0.,1.));
#1365=DIRECTION('center_axis',(3.10551895000044E-16,-1.,0.));
#1366=DIRECTION('ref_axis',(1.,3.10551895000044E-16,0.));
#1367=DIRECTION('',(0.,0.,1.));
#1368=DIRECTION('center_axis',(-3.10551895000044E-16,1.,0.));
#1369=DIRECTION('ref_axis',(-1.,-3.10551895000044E-16,0.));
#1370=DIRECTION('',(0.,0.,1.));
#1371=DIRECTION('center_axis',(0.,0.,1.));
#1372=DIRECTION('ref_axis',(0.,1.,0.));
#1373=DIRECTION('',(0.,0.,1.));
#1374=DIRECTION('center_axis',(0.,0.,1.));
#1375=DIRECTION('ref_axis',(1.,0.,0.));
#1376=DIRECTION('',(0.,0.,1.));
#1377=DIRECTION('center_axis',(-1.,0.,0.));
#1378=DIRECTION('ref_axis',(0.,-1.,0.));
#1379=DIRECTION('',(0.,0.,1.));
#1380=DIRECTION('center_axis',(1.,-1.87221420678779E-17,0.));
#1381=DIRECTION('ref_axis',(1.87221420678779E-17,1.,0.));
#1382=DIRECTION('',(0.,0.,1.));
#1383=DIRECTION('center_axis',(0.,0.,1.));
#1384=DIRECTION('ref_axis',(-1.,0.,0.));
#1385=DIRECTION('',(0.,0.,1.));
#1386=DIRECTION('center_axis',(0.,1.,0.));
#1387=DIRECTION('ref_axis',(-1.,0.,0.));
#1388=DIRECTION('',(0.,0.,1.));
#1389=DIRECTION('center_axis',(0.,0.,1.));
#1390=DIRECTION('ref_axis',(0.,-1.,0.));
#1391=DIRECTION('center_axis',(0.,0.,1.));
#1392=DIRECTION('ref_axis',(1.,0.,0.));
#1393=DIRECTION('',(0.,0.,1.));
#1394=DIRECTION('center_axis',(1.,-8.98662819258136E-16,0.));
#1395=DIRECTION('ref_axis',(8.98662819258136E-16,1.,0.));
#1396=DIRECTION('',(0.,0.,1.));
#1397=DIRECTION('center_axis',(0.,0.,1.));
#1398=DIRECTION('ref_axis',(0.,-1.,0.));
#1399=DIRECTION('center_axis',(0.,0.,1.));
#1400=DIRECTION('ref_axis',(1.,0.,0.));
#1401=DIRECTION('',(0.707106781186553,8.659560562355E-17,-0.707106781186542));
#1402=DIRECTION('center_axis',(0.,0.,-1.));
#1403=DIRECTION('ref_axis',(1.,0.,0.));
#1404=DIRECTION('center_axis',(0.,0.,1.));
#1405=DIRECTION('ref_axis',(1.,0.,0.));
#1406=DIRECTION('',(0.,0.,-1.));
#1407=DIRECTION('center_axis',(0.,0.,-1.));
#1408=DIRECTION('ref_axis',(1.,0.,0.));
#1409=DIRECTION('center_axis',(0.,0.,1.));
#1410=DIRECTION('ref_axis',(1.,0.,0.));
#1411=DIRECTION('',(0.707106781186553,8.659560562355E-17,-0.707106781186542));
#1412=DIRECTION('center_axis',(0.,0.,-1.));
#1413=DIRECTION('ref_axis',(1.,0.,0.));
#1414=DIRECTION('center_axis',(0.,0.,1.));
#1415=DIRECTION('ref_axis',(1.,0.,0.));
#1416=DIRECTION('',(0.,0.,-1.));
#1417=DIRECTION('center_axis',(0.,0.,-1.));
#1418=DIRECTION('ref_axis',(1.,0.,0.));
#1419=DIRECTION('center_axis',(0.,0.,1.));
#1420=DIRECTION('ref_axis',(1.,0.,0.));
#1421=DIRECTION('',(0.707106781186548,8.65956056235494E-17,-0.707106781186547));
#1422=DIRECTION('center_axis',(0.,0.,-1.));
#1423=DIRECTION('ref_axis',(1.,0.,0.));
#1424=DIRECTION('center_axis',(0.,0.,1.));
#1425=DIRECTION('ref_axis',(1.,0.,0.));
#1426=DIRECTION('',(0.,0.,-1.));
#1427=DIRECTION('center_axis',(0.,0.,-1.));
#1428=DIRECTION('ref_axis',(1.,0.,0.));
#1429=DIRECTION('center_axis',(0.,0.,1.));
#1430=DIRECTION('ref_axis',(1.,0.,0.));
#1431=DIRECTION('',(0.707106781186548,8.65956056235494E-17,-0.707106781186547));
#1432=DIRECTION('center_axis',(0.,0.,-1.));
#1433=DIRECTION('ref_axis',(1.,0.,0.));
#1434=DIRECTION('center_axis',(0.,0.,1.));
#1435=DIRECTION('ref_axis',(1.,0.,0.));
#1436=DIRECTION('',(0.,0.,-1.));
#1437=DIRECTION('center_axis',(0.,0.,-1.));
#1438=DIRECTION('ref_axis',(1.,0.,0.));
#1439=DIRECTION('center_axis',(0.,0.,1.));
#1440=DIRECTION('ref_axis',(1.,0.,0.));
#1441=DIRECTION('center_axis',(0.,0.,1.));
#1442=DIRECTION('ref_axis',(1.,0.,0.));
#1443=DIRECTION('center_axis',(0.,0.,1.));
#1444=DIRECTION('ref_axis',(1.,0.,0.));
#1445=DIRECTION('center_axis',(0.,0.,1.));
#1446=DIRECTION('ref_axis',(1.,0.,0.));
#1447=CARTESIAN_POINT('',(0.,0.,0.));
#1448=CARTESIAN_POINT('Origin',(37.175,-6.43409902576698,0.159099025766976));
#1449=CARTESIAN_POINT('',(90.8,-6.05000000000001,0.));
#1450=CARTESIAN_POINT('',(90.8,-6.81819805153395,0.318198051533952));
#1451=CARTESIAN_POINT('',(90.8,-6.05000000000001,0.));
#1452=CARTESIAN_POINT('',(4.99999999999999,-6.81819805153395,0.318198051533952));
#1453=CARTESIAN_POINT('',(37.175,-6.81819805153395,0.318198051533952));
#1454=CARTESIAN_POINT('',(4.99999999999999,-6.05000000000001,0.));
#1455=CARTESIAN_POINT('',(4.99999999999999,-6.81819805153395,0.318198051533952));
#1456=CARTESIAN_POINT('',(37.175,-6.05000000000001,0.));
#1457=CARTESIAN_POINT('Origin',(90.8,4.99999999999998,0.159099025766975));
#1458=CARTESIAN_POINT('',(101.85,4.99999999999998,0.));
#1459=CARTESIAN_POINT('',(102.618198051534,4.99999999999998,0.318198051533943));
#1460=CARTESIAN_POINT('',(101.85,4.99999999999998,0.));
#1461=CARTESIAN_POINT('Origin',(90.8,4.99999999999998,0.31819805153395));
#1462=CARTESIAN_POINT('Origin',(90.8,4.99999999999998,0.));
#1463=CARTESIAN_POINT('Origin',(102.234099025767,27.2375,0.159099025766977));
#1464=CARTESIAN_POINT('',(101.85,64.3,0.));
#1465=CARTESIAN_POINT('',(102.618198051534,64.3,0.318198051533958));
#1466=CARTESIAN_POINT('',(101.85,64.3,0.));
#1467=CARTESIAN_POINT('',(102.618198051534,27.2375,0.318198051533955));
#1468=CARTESIAN_POINT('',(101.85,27.2375,0.));
#1469=CARTESIAN_POINT('Origin',(90.8,64.3,0.159099025766978));
#1470=CARTESIAN_POINT('',(90.8,75.3500000000001,0.));
#1471=CARTESIAN_POINT('',(90.8,76.118198051534,0.318198051533954));
#1472=CARTESIAN_POINT('',(90.8,75.3500000000001,0.));
#1473=CARTESIAN_POINT('Origin',(90.8,64.3,0.318198051533956));
#1474=CARTESIAN_POINT('Origin',(90.8,64.3,0.));
#1475=CARTESIAN_POINT('Origin',(58.625,75.734099025767,0.15909902576697));
#1476=CARTESIAN_POINT('',(5.,75.35,0.));
#1477=CARTESIAN_POINT('',(5.,76.1181980515339,0.318198051533938));
#1478=CARTESIAN_POINT('',(5.,75.35,0.));
#1479=CARTESIAN_POINT('',(58.625,76.1181980515339,0.318198051533941));
#1480=CARTESIAN_POINT('',(58.625,75.35,0.));
#1481=CARTESIAN_POINT('Origin',(5.,64.3,0.159099025766975));
#1482=CARTESIAN_POINT('',(-6.04999999999999,64.3,0.));
#1483=CARTESIAN_POINT('',(-6.81819805153393,64.3,0.318198051533947));
#1484=CARTESIAN_POINT('',(-6.04999999999999,64.3,0.));
#1485=CARTESIAN_POINT('Origin',(5.,64.3,0.31819805153395));
#1486=CARTESIAN_POINT('Origin',(5.,64.3,0.));
#1487=CARTESIAN_POINT('Origin',(-6.43409902576697,42.0625,0.159099025766972));
#1488=CARTESIAN_POINT('',(-6.04999999999999,5.00000000000003,0.));
#1489=CARTESIAN_POINT('',(-6.81819805153394,5.00000000000003,0.318198051533944));
#1490=CARTESIAN_POINT('',(-6.04999999999999,5.00000000000003,0.));
#1491=CARTESIAN_POINT('',(-6.81819805153394,42.0625,0.318198051533944));
#1492=CARTESIAN_POINT('',(-6.04999999999999,42.0625,0.));
#1493=CARTESIAN_POINT('Origin',(5.,5.00000000000002,0.159099025766973));
#1494=CARTESIAN_POINT('Origin',(5.,5.00000000000002,0.318198051533947));
#1495=CARTESIAN_POINT('Origin',(5.,5.00000000000002,0.));
#1496=CARTESIAN_POINT('Origin',(5.,64.3,0.5));
#1497=CARTESIAN_POINT('',(-7.49999999999998,64.3,1.));
#1498=CARTESIAN_POINT('',(-6.49999999999998,64.3,0.));
#1499=CARTESIAN_POINT('',(5.,76.8,1.));
#1500=CARTESIAN_POINT('Origin',(5.,64.3,1.));
#1501=CARTESIAN_POINT('',(5.,75.8,0.));
#1502=CARTESIAN_POINT('Origin',(-7.,49.475,0.5));
#1503=CARTESIAN_POINT('',(-7.5,5.00000000000003,1.));
#1504=CARTESIAN_POINT('',(-6.5,5.00000000000003,0.));
#1505=CARTESIAN_POINT('',(-7.5,49.475,1.));
#1506=CARTESIAN_POINT('Origin',(5.,5.00000000000002,0.5));
#1507=CARTESIAN_POINT('',(4.99999999999999,-7.5,1.));
#1508=CARTESIAN_POINT('',(4.99999999999999,-7.5,1.));
#1509=CARTESIAN_POINT('Origin',(5.,5.00000000000002,1.));
#1510=CARTESIAN_POINT('Origin',(26.45,-7.,0.5));
#1511=CARTESIAN_POINT('',(90.8,-7.5,1.));
#1512=CARTESIAN_POINT('',(90.8,-6.5,0.));
#1513=CARTESIAN_POINT('',(26.45,-7.5,1.));
#1514=CARTESIAN_POINT('Origin',(47.9,34.65,0.));
#1515=CARTESIAN_POINT('Origin',(90.8,4.99999999999998,0.5));
#1516=CARTESIAN_POINT('',(103.3,4.99999999999998,1.));
#1517=CARTESIAN_POINT('',(102.3,4.99999999999998,0.));
#1518=CARTESIAN_POINT('Origin',(90.8,4.99999999999998,1.));
#1519=CARTESIAN_POINT('Origin',(102.8,19.825,0.5));
#1520=CARTESIAN_POINT('',(103.3,64.3,1.));
#1521=CARTESIAN_POINT('',(102.3,64.3,0.));
#1522=CARTESIAN_POINT('',(103.3,19.825,1.));
#1523=CARTESIAN_POINT('Origin',(90.8,64.3,0.5));
#1524=CARTESIAN_POINT('',(90.8,76.8,1.));
#1525=CARTESIAN_POINT('',(90.8,75.8000000000001,0.));
#1526=CARTESIAN_POINT('Origin',(90.8,64.3,1.));
#1527=CARTESIAN_POINT('Origin',(69.35,76.3,0.5));
#1528=CARTESIAN_POINT('',(69.35,76.8,1.));
#1529=CARTESIAN_POINT('Origin',(5.,64.3,0.));
#1530=CARTESIAN_POINT('',(-7.49999999999998,64.3,12.));
#1531=CARTESIAN_POINT('',(-7.49999999999998,64.3,0.));
#1532=CARTESIAN_POINT('',(5.,76.8,12.));
#1533=CARTESIAN_POINT('Origin',(5.,64.3,12.));
#1534=CARTESIAN_POINT('',(5.,76.8,0.));
#1535=CARTESIAN_POINT('Origin',(-7.5,64.3,0.));
#1536=CARTESIAN_POINT('',(-7.5,5.00000000000003,12.));
#1537=CARTESIAN_POINT('',(-7.5,5.00000000000003,0.));
#1538=CARTESIAN_POINT('',(-7.5,64.3,12.));
#1539=CARTESIAN_POINT('Origin',(5.,5.00000000000002,0.));
#1540=CARTESIAN_POINT('',(5.,-7.5,12.));
#1541=CARTESIAN_POINT('',(4.99999999999999,-7.5,0.));
#1542=CARTESIAN_POINT('Origin',(5.,5.00000000000002,12.));
#1543=CARTESIAN_POINT('Origin',(4.99999999999999,-7.5,0.));
#1544=CARTESIAN_POINT('',(90.8,-7.5,12.));
#1545=CARTESIAN_POINT('',(90.8,-7.5,0.));
#1546=CARTESIAN_POINT('',(4.99999999999999,-7.5,12.));
#1547=CARTESIAN_POINT('Origin',(96.9871843353823,70.4871843353823,11.75));
#1548=CARTESIAN_POINT('',(94.1871843353823,70.4871843353823,12.));
#1549=CARTESIAN_POINT('Origin',(96.9871843353823,70.4871843353823,12.));
#1550=CARTESIAN_POINT('',(94.6871843353823,70.4871843353823,11.5));
#1551=CARTESIAN_POINT('',(94.4371843353823,70.4871843353823,11.75));
#1552=CARTESIAN_POINT('Origin',(96.9871843353823,70.4871843353823,11.5));
#1553=CARTESIAN_POINT('Origin',(47.9,34.65,12.));
#1554=CARTESIAN_POINT('',(69.8,69.3,12.));
#1555=CARTESIAN_POINT('',(69.8,76.8,12.));
#1556=CARTESIAN_POINT('',(69.8,55.725,12.));
#1557=CARTESIAN_POINT('',(90.8,76.8,12.));
#1558=CARTESIAN_POINT('',(103.3,4.99999999999998,12.));
#1559=CARTESIAN_POINT('Origin',(90.8,4.99999999999998,12.));
#1560=CARTESIAN_POINT('',(103.3,64.3,12.));
#1561=CARTESIAN_POINT('',(103.3,4.99999999999998,12.));
#1562=CARTESIAN_POINT('',(90.8,76.8,12.));
#1563=CARTESIAN_POINT('Origin',(90.8,64.3,12.));
#1564=CARTESIAN_POINT('',(84.8,76.8,12.));
#1565=CARTESIAN_POINT('',(90.8,76.8,12.));
#1566=CARTESIAN_POINT('',(84.8,69.3,12.));
#1567=CARTESIAN_POINT('',(84.8,55.725,12.));
#1568=CARTESIAN_POINT('',(90.8,69.3,12.));
#1569=CARTESIAN_POINT('',(90.8,69.3,12.));
#1570=CARTESIAN_POINT('',(95.8,64.3,12.));
#1571=CARTESIAN_POINT('Origin',(90.8,64.3,12.));
#1572=CARTESIAN_POINT('',(95.8,4.99999999999998,12.));
#1573=CARTESIAN_POINT('',(95.8,4.99999999999998,12.));
#1574=CARTESIAN_POINT('',(90.8,2.60902410786912E-14,12.));
#1575=CARTESIAN_POINT('Origin',(90.8,4.99999999999998,12.));
#1576=CARTESIAN_POINT('',(5.,2.66453525910038E-14,12.));
#1577=CARTESIAN_POINT('',(5.,2.60902410786912E-14,12.));
#1578=CARTESIAN_POINT('',(0.,5.00000000000002,12.));
#1579=CARTESIAN_POINT('Origin',(5.,5.00000000000002,12.));
#1580=CARTESIAN_POINT('',(0.,64.3,12.));
#1581=CARTESIAN_POINT('',(1.11022302462516E-15,64.3,12.));
#1582=CARTESIAN_POINT('',(5.,69.3,12.));
#1583=CARTESIAN_POINT('Origin',(5.,64.3,12.));
#1584=CARTESIAN_POINT('',(90.8,69.3,12.));
#1585=CARTESIAN_POINT('',(-3.98718433538229,70.4871843353823,12.));
#1586=CARTESIAN_POINT('Origin',(-1.18718433538229,70.4871843353823,12.));
#1587=CARTESIAN_POINT('',(94.1871843353823,-1.18718433538226,12.));
#1588=CARTESIAN_POINT('Origin',(96.9871843353823,-1.18718433538226,12.));
#1589=CARTESIAN_POINT('',(-3.9871843353823,-1.18718433538226,12.));
#1590=CARTESIAN_POINT('Origin',(-1.1871843353823,-1.18718433538226,12.));
#1591=CARTESIAN_POINT('Origin',(96.9871843353823,70.4871843353823,12.));
#1592=CARTESIAN_POINT('',(94.6871843353823,70.4871843353823,7.7));
#1593=CARTESIAN_POINT('',(94.6871843353823,70.4871843353823,12.));
#1594=CARTESIAN_POINT('Origin',(96.9871843353823,70.4871843353823,7.7));
#1595=CARTESIAN_POINT('Origin',(-1.18718433538229,70.4871843353823,11.75));
#1596=CARTESIAN_POINT('',(-3.48718433538229,70.4871843353823,11.5));
#1597=CARTESIAN_POINT('',(-3.73718433538229,70.4871843353823,11.75));
#1598=CARTESIAN_POINT('Origin',(-1.18718433538229,70.4871843353823,11.5));
#1599=CARTESIAN_POINT('Origin',(-1.18718433538229,70.4871843353823,12.));
#1600=CARTESIAN_POINT('',(-3.48718433538229,70.4871843353823,7.7));
#1601=CARTESIAN_POINT('',(-3.48718433538229,70.4871843353823,12.));
#1602=CARTESIAN_POINT('Origin',(-1.18718433538229,70.4871843353823,7.7));
#1603=CARTESIAN_POINT('Origin',(-1.1871843353823,-1.18718433538226,11.75));
#1604=CARTESIAN_POINT('',(-3.4871843353823,-1.18718433538226,11.5));
#1605=CARTESIAN_POINT('',(-3.7371843353823,-1.18718433538226,11.75));
#1606=CARTESIAN_POINT('Origin',(-1.1871843353823,-1.18718433538226,11.5));
#1607=CARTESIAN_POINT('Origin',(-1.1871843353823,-1.18718433538226,12.));
#1608=CARTESIAN_POINT('',(-3.4871843353823,-1.18718433538226,7.7));
#1609=CARTESIAN_POINT('',(-3.4871843353823,-1.18718433538226,12.));
#1610=CARTESIAN_POINT('Origin',(-1.1871843353823,-1.18718433538226,7.7));
#1611=CARTESIAN_POINT('Origin',(96.9871843353823,-1.18718433538226,11.75));
#1612=CARTESIAN_POINT('',(94.6871843353823,-1.18718433538226,11.5));
#1613=CARTESIAN_POINT('',(94.4371843353823,-1.18718433538226,11.75));
#1614=CARTESIAN_POINT('Origin',(96.9871843353823,-1.18718433538226,11.5));
#1615=CARTESIAN_POINT('Origin',(96.9871843353823,-1.18718433538226,12.));
#1616=CARTESIAN_POINT('',(94.6871843353823,-1.18718433538226,7.7));
#1617=CARTESIAN_POINT('',(94.6871843353823,-1.18718433538226,12.));
#1618=CARTESIAN_POINT('Origin',(96.9871843353823,-1.18718433538226,7.7));
#1619=CARTESIAN_POINT('Origin',(47.9,34.65,7.7));
#1620=CARTESIAN_POINT('Origin',(47.9,34.65,7.7));
#1621=CARTESIAN_POINT('Origin',(47.9,34.65,7.7));
#1622=CARTESIAN_POINT('Origin',(47.9,34.65,7.7));
#1623=CARTESIAN_POINT('Origin',(81.3,55.725,8.8));
#1624=CARTESIAN_POINT('',(81.3,69.3,5.3));
#1625=CARTESIAN_POINT('',(84.8,69.3,8.8));
#1626=CARTESIAN_POINT('Origin',(81.3,69.3000000000001,8.8));
#1627=CARTESIAN_POINT('',(84.8,76.8,8.8));
#1628=CARTESIAN_POINT('',(84.8,55.725,8.8));
#1629=CARTESIAN_POINT('',(81.3,76.8,5.3));
#1630=CARTESIAN_POINT('Origin',(81.3,76.8,8.8));
#1631=CARTESIAN_POINT('',(81.3,55.725,5.3));
#1632=CARTESIAN_POINT('Origin',(84.8,76.8,5.3));
#1633=CARTESIAN_POINT('',(84.8,69.3,2.65));
#1634=CARTESIAN_POINT('',(84.8,76.8,2.65));
#1635=CARTESIAN_POINT('Origin',(73.3,55.725,8.8));
#1636=CARTESIAN_POINT('',(69.8,69.3,8.8));
#1637=CARTESIAN_POINT('',(73.3,69.3,5.3));
#1638=CARTESIAN_POINT('Origin',(73.3,69.3,8.8));
#1639=CARTESIAN_POINT('',(73.3,76.8,5.3));
#1640=CARTESIAN_POINT('',(73.3,55.725,5.3));
#1641=CARTESIAN_POINT('',(69.8,76.8,8.8));
#1642=CARTESIAN_POINT('Origin',(73.3,76.8,8.8));
#1643=CARTESIAN_POINT('',(69.8,55.725,8.8));
#1644=CARTESIAN_POINT('Origin',(47.9,34.65,5.3));
#1645=CARTESIAN_POINT('',(80.3,76.8,5.3));
#1646=CARTESIAN_POINT('',(5.,69.3,5.3));
#1647=CARTESIAN_POINT('',(90.8,69.3,5.3));
#1648=CARTESIAN_POINT('',(1.11022302462516E-15,64.3,5.3));
#1649=CARTESIAN_POINT('Origin',(5.,64.3,5.3));
#1650=CARTESIAN_POINT('',(0.,5.00000000000003,5.3));
#1651=CARTESIAN_POINT('',(1.11022302462516E-15,64.3,5.3));
#1652=CARTESIAN_POINT('',(4.99999999999999,2.66453525910038E-14,5.3));
#1653=CARTESIAN_POINT('Origin',(5.,5.00000000000002,5.3));
#1654=CARTESIAN_POINT('',(90.8,2.66453525910038E-14,5.3));
#1655=CARTESIAN_POINT('',(5.,2.60902410786912E-14,5.3));
#1656=CARTESIAN_POINT('',(95.8,4.99999999999998,5.3));
#1657=CARTESIAN_POINT('Origin',(90.8,4.99999999999998,5.3));
#1658=CARTESIAN_POINT('',(95.8,64.3,5.3));
#1659=CARTESIAN_POINT('',(95.8,4.99999999999998,5.3));
#1660=CARTESIAN_POINT('',(90.8,69.3,5.3));
#1661=CARTESIAN_POINT('Origin',(90.8,64.3,5.3));
#1662=CARTESIAN_POINT('',(90.8,69.3,5.3));
#1663=CARTESIAN_POINT('',(88.,64.3,5.3));
#1664=CARTESIAN_POINT('Origin',(90.8,64.3,5.3));
#1665=CARTESIAN_POINT('',(2.19999999999999,5.00000000000003,5.3));
#1666=CARTESIAN_POINT('Origin',(4.99999999999999,5.00000000000003,5.3));
#1667=CARTESIAN_POINT('',(2.2,64.3,5.3));
#1668=CARTESIAN_POINT('Origin',(5.,64.3,5.3));
#1669=CARTESIAN_POINT('',(88.,5.00000000000002,5.3));
#1670=CARTESIAN_POINT('Origin',(90.8,5.00000000000002,5.3));
#1671=CARTESIAN_POINT('Origin',(69.8,76.8,12.3));
#1672=CARTESIAN_POINT('',(69.8,76.8,6.15));
#1673=CARTESIAN_POINT('',(69.8,69.3,6.15));
#1674=CARTESIAN_POINT('Origin',(5.,69.3,0.));
#1675=CARTESIAN_POINT('',(90.8,69.3,0.));
#1676=CARTESIAN_POINT('Origin',(5.,69.3,0.));
#1677=CARTESIAN_POINT('',(5.,69.3,0.));
#1678=CARTESIAN_POINT('Origin',(90.8,76.8,0.));
#1679=CARTESIAN_POINT('',(90.8,76.8,0.));
#1680=CARTESIAN_POINT('Origin',(5.,64.3,0.));
#1681=CARTESIAN_POINT('',(1.11022302462516E-15,64.3,0.));
#1682=CARTESIAN_POINT('Origin',(90.8,64.3,0.));
#1683=CARTESIAN_POINT('',(95.8,64.3,0.));
#1684=CARTESIAN_POINT('Origin',(95.8,64.3,0.));
#1685=CARTESIAN_POINT('',(95.8,4.99999999999998,0.));
#1686=CARTESIAN_POINT('Origin',(0.,5.00000000000003,0.));
#1687=CARTESIAN_POINT('',(0.,5.00000000000002,0.));
#1688=CARTESIAN_POINT('Origin',(5.,5.00000000000002,0.));
#1689=CARTESIAN_POINT('',(4.99999999999999,2.66453525910038E-14,0.));
#1690=CARTESIAN_POINT('Origin',(90.8,2.60902410786912E-14,0.));
#1691=CARTESIAN_POINT('',(90.8,2.60902410786912E-14,0.));
#1692=CARTESIAN_POINT('Origin',(90.8,4.99999999999998,0.));
#1693=CARTESIAN_POINT('Origin',(90.8,64.3,0.));
#1694=CARTESIAN_POINT('',(103.3,64.3,0.));
#1695=CARTESIAN_POINT('Origin',(103.3,4.99999999999998,0.));
#1696=CARTESIAN_POINT('',(103.3,4.99999999999998,0.));
#1697=CARTESIAN_POINT('Origin',(90.8,4.99999999999998,0.));
#1698=CARTESIAN_POINT('Origin',(90.8,64.3,5.05));
#1699=CARTESIAN_POINT('',(88.5,64.3,4.8));
#1700=CARTESIAN_POINT('',(88.25,64.3,5.05));
#1701=CARTESIAN_POINT('Origin',(90.8,64.3,4.8));
#1702=CARTESIAN_POINT('Origin',(90.8,64.3,0.));
#1703=CARTESIAN_POINT('',(88.5,64.3,1.));
#1704=CARTESIAN_POINT('',(88.5,64.3,0.));
#1705=CARTESIAN_POINT('Origin',(90.8,64.3,1.));
#1706=CARTESIAN_POINT('Origin',(90.8,5.00000000000002,5.05));
#1707=CARTESIAN_POINT('',(88.5,5.00000000000002,4.8));
#1708=CARTESIAN_POINT('',(88.25,5.00000000000002,5.05));
#1709=CARTESIAN_POINT('Origin',(90.8,5.00000000000002,4.8));
#1710=CARTESIAN_POINT('Origin',(90.8,5.00000000000002,0.));
#1711=CARTESIAN_POINT('',(88.5,5.00000000000002,1.));
#1712=CARTESIAN_POINT('',(88.5,5.00000000000002,0.));
#1713=CARTESIAN_POINT('Origin',(90.8,5.00000000000002,1.));
#1714=CARTESIAN_POINT('Origin',(4.99999999999999,5.00000000000003,5.05));
#1715=CARTESIAN_POINT('',(2.69999999999999,5.00000000000003,4.8));
#1716=CARTESIAN_POINT('',(2.44999999999999,5.00000000000003,5.05));
#1717=CARTESIAN_POINT('Origin',(4.99999999999999,5.00000000000003,4.8));
#1718=CARTESIAN_POINT('Origin',(4.99999999999999,5.00000000000003,0.));
#1719=CARTESIAN_POINT('',(2.69999999999999,5.00000000000003,1.));
#1720=CARTESIAN_POINT('',(2.69999999999999,5.00000000000003,0.));
#1721=CARTESIAN_POINT('Origin',(4.99999999999999,5.00000000000003,1.));
#1722=CARTESIAN_POINT('Origin',(5.,64.3,5.05));
#1723=CARTESIAN_POINT('',(2.7,64.3,4.8));
#1724=CARTESIAN_POINT('',(2.45,64.3,5.05));
#1725=CARTESIAN_POINT('Origin',(5.,64.3,4.8));
#1726=CARTESIAN_POINT('Origin',(5.,64.3,0.));
#1727=CARTESIAN_POINT('',(2.7,64.3,1.));
#1728=CARTESIAN_POINT('',(2.7,64.3,0.));
#1729=CARTESIAN_POINT('Origin',(5.,64.3,1.));
#1730=CARTESIAN_POINT('Origin',(90.8,5.00000000000002,1.));
#1731=CARTESIAN_POINT('Origin',(4.99999999999999,5.00000000000003,1.));
#1732=CARTESIAN_POINT('Origin',(90.8,64.3,1.));
#1733=CARTESIAN_POINT('Origin',(5.,64.3,1.));
#1734=UNCERTAINTY_MEASURE_WITH_UNIT(LENGTH_MEASURE(0.01),#1738,
'DISTANCE_ACCURACY_VALUE',
'Maximum model space distance between geometric entities at asserted c
onnectivities');
#1735=UNCERTAINTY_MEASURE_WITH_UNIT(LENGTH_MEASURE(0.01),#1738,
'DISTANCE_ACCURACY_VALUE',
'Maximum model space distance between geometric entities at asserted c
onnectivities');
#1736=(
GEOMETRIC_REPRESENTATION_CONTEXT(3)
GLOBAL_UNCERTAINTY_ASSIGNED_CONTEXT((#1734))
GLOBAL_UNIT_ASSIGNED_CONTEXT((#1738,#1739,#1740))
REPRESENTATION_CONTEXT('','3D')
);
#1737=(
GEOMETRIC_REPRESENTATION_CONTEXT(3)
GLOBAL_UNCERTAINTY_ASSIGNED_CONTEXT((#1735))
GLOBAL_UNIT_ASSIGNED_CONTEXT((#1738,#1739,#1740))
REPRESENTATION_CONTEXT('','3D')
);
#1738=(
LENGTH_UNIT()
NAMED_UNIT(*)
SI_UNIT(.MILLI.,.METRE.)
);
#1739=(
NAMED_UNIT(*)
PLANE_ANGLE_UNIT()
SI_UNIT($,.RADIAN.)
);
#1740=(
NAMED_UNIT(*)
SI_UNIT($,.STERADIAN.)
SOLID_ANGLE_UNIT()
);
#1741=SHAPE_DEFINITION_REPRESENTATION(#1742,#1743);
#1742=PRODUCT_DEFINITION_SHAPE('',$,#1745);
#1743=SHAPE_REPRESENTATION('',(#1010),#1736);
#1744=PRODUCT_DEFINITION_CONTEXT('part definition',#1749,'design');
#1745=PRODUCT_DEFINITION('2026-08-23-10-06-46-596','HackPad',#1746,#1744);
#1746=PRODUCT_DEFINITION_FORMATION('',$,#1751);
#1747=PRODUCT_RELATED_PRODUCT_CATEGORY('HackPad','HackPad',(#1751));
#1748=APPLICATION_PROTOCOL_DEFINITION('international standard',
'automotive_design',2009,#1749);
#1749=APPLICATION_CONTEXT(
'Core Data for Automotive Mechanical Design Process');
#1750=PRODUCT_CONTEXT('part definition',#1749,'mechanical');
#1751=PRODUCT('2026-08-23-10-06-46-596','HackPad',$,(#1750));
#1752=PRESENTATION_STYLE_ASSIGNMENT((#1756));
#1753=PRESENTATION_STYLE_ASSIGNMENT((#1757));
#1754=PRESENTATION_STYLE_ASSIGNMENT((#1758));
#1755=PRESENTATION_STYLE_ASSIGNMENT((#1759));
#1756=SURFACE_STYLE_USAGE(.BOTH.,#1760);
#1757=SURFACE_STYLE_USAGE(.BOTH.,#1761);
#1758=SURFACE_STYLE_USAGE(.BOTH.,#1762);
#1759=SURFACE_STYLE_USAGE(.BOTH.,#1763);
#1760=SURFACE_SIDE_STYLE('',(#1764));
#1761=SURFACE_SIDE_STYLE('',(#1765));
#1762=SURFACE_SIDE_STYLE('',(#1766));
#1763=SURFACE_SIDE_STYLE('',(#1767));
#1764=SURFACE_STYLE_FILL_AREA(#1768);
#1765=SURFACE_STYLE_FILL_AREA(#1769);
#1766=SURFACE_STYLE_FILL_AREA(#1770);
#1767=SURFACE_STYLE_FILL_AREA(#1771);
#1768=FILL_AREA_STYLE('Opaque(255,255,255)',(#1772));
#1769=FILL_AREA_STYLE('Steel - Satin',(#1773));
#1770=FILL_AREA_STYLE('ABS (White) (1)',(#1774));
#1771=FILL_AREA_STYLE('ABS (White)',(#1775));
#1772=FILL_AREA_STYLE_COLOUR('Opaque(255,255,255)',#1776);
#1773=FILL_AREA_STYLE_COLOUR('Steel - Satin',#1777);
#1774=FILL_AREA_STYLE_COLOUR('ABS (White) (1)',#1778);
#1775=FILL_AREA_STYLE_COLOUR('ABS (White)',#1779);
#1776=COLOUR_RGB('Opaque(255,255,255)',1.,1.,1.);
#1777=COLOUR_RGB('Steel - Satin',0.627450980392157,0.627450980392157,0.627450980392157);
#1778=COLOUR_RGB('ABS (White) (1)',0.76078431372549,0.882352941176471,0.537254901960784);
#1779=COLOUR_RGB('ABS (White)',0.380392156862745,0.776470588235294,0.501960784313725);
ENDSEC;
END-ISO-10303-21;
